<svg width="19" height="19" fill="none" xmlns="http://www.w3.org/2000/svg"><path d="M14.4 14.118a2.217 2.217 0 0 0-2.218 2.219c0 1.216.98 2.218 2.218 2.218a2.217 2.217 0 0 0 2.219-2.218c-.022-1.216-1.003-2.219-2.219-2.219zm3.903-10.58c-.043 0-.107-.022-.17-.022H4.692L4.48 2.087A1.91 1.91 0 0 0 2.58.444H.853A.856.856 0 0 0 0 1.298c0 .469.384.853.853.853h1.728c.107 0 .192.085.213.192l1.323 9.002a2.339 2.339 0 0 0 2.304 1.984h8.874c1.11 0 2.07-.79 2.304-1.877l1.386-6.933a.843.843 0 0 0-.682-.981zM8.959 16.23a2.206 2.206 0 0 0-2.197-2.112 2.231 2.231 0 0 0-2.134 2.304 2.186 2.186 0 0 0 2.176 2.112h.043c1.216-.064 2.176-1.088 2.112-2.304z" fill="#fff"/></svg>