<svg width="44" height="44" fill="none" xmlns="http://www.w3.org/2000/svg"><path d="M.15 22C.15 9.943 9.943.15 22 .15 34.057.15 43.85 9.943 43.85 22c0 12.057-9.793 21.85-21.85 21.85C9.943 43.85.15 34.057.15 22zm1.608 0c0 11.162 9.08 20.242 20.242 20.242S42.242 33.162 42.242 22 33.162 1.758 22 1.758 1.758 10.838 1.758 22z" fill="#323232" stroke="#fff" stroke-width=".3"/><path d="M26.622 17.229v.15h6.83c.384 0 .754.348.803.812v7.626a.8.8 0 0 1-.804.804h-6.83v6.83a.8.8 0 0 1-.804.804h-7.633a.8.8 0 0 1-.805-.804v-6.83h-6.83a.8.8 0 0 1-.803-.804v-7.634a.8.8 0 0 1 .804-.804h6.83v-6.83a.8.8 0 0 1 .804-.804h7.633a.8.8 0 0 1 .805.804v6.68zm5.928 7.784h.15v-6.026h-6.83a.8.8 0 0 1-.804-.804v-6.83h-6.078v6.83a.8.8 0 0 1-.804.804h-6.83v6.026h6.83a.8.8 0 0 1 .804.804v6.83h6.025v-6.83a.8.8 0 0 1 .804-.804h6.733z" fill="#0D84DA" stroke="#fff" stroke-width=".3"/></svg>