<svg width="45" height="45" fill="none" xmlns="http://www.w3.org/2000/svg"><g clip-path="url(#clip0)"><path d="M15.359 1.505L11.597 0l-.558 1.398 3.063 1.224-1.225 3.063 1.397.56 1.504-3.762a.753.753 0 0 0-.42-.978z" fill="#0D84DA"/><path d="M44.494 17.97a22.322 22.322 0 0 0-9.668-14.218A22.327 22.327 0 0 0 17.936.535l.306 1.473A20.82 20.82 0 0 1 34 5.009a20.823 20.823 0 0 1 9.02 13.266 20.815 20.815 0 0 1-3.002 15.757 20.823 20.823 0 0 1-13.265 9.02 20.819 20.819 0 0 1-15.758-3.002 20.821 20.821 0 0 1-9.02-13.265A20.954 20.954 0 0 1 14.611 3.11l-.567-1.395A22.458 22.458 0 0 0 .502 27.09a22.316 22.316 0 0 0 9.667 14.217C13.876 43.74 18.118 45 22.451 45a22.867 22.867 0 0 0 4.609-.474 22.326 22.326 0 0 0 14.217-9.668 22.318 22.318 0 0 0 3.217-16.889z" fill="#0D84DA"/><path d="M23.358 5.212h-1.505v3.01h1.505v-3.01zm0 31.598h-1.505v3.008h1.505V36.81zM14.602 7.154l-1.303.751 1.502 2.607 1.304-.75-1.503-2.608zm15.801 27.361l-1.303.751 1.502 2.607 1.303-.75-1.502-2.608zM7.991 13.21l-.75 1.303 2.606 1.502.752-1.303-2.608-1.503zM35.35 29.012l-.75 1.303 2.613 1.506.751-1.303-2.614-1.506zM8.312 21.763h-3.01v1.505h3.01v-1.505zm31.598 0H36.9v1.505h3.01v-1.505zM9.851 29.014l-2.607 1.503.752 1.304 2.607-1.504-.752-1.303zM37.218 13.21l-2.615 1.505.751 1.303 2.614-1.506-.75-1.303zM14.801 34.516l-1.502 2.607 1.303.75 1.502-2.607-1.303-.75zM30.603 7.154L29.1 9.761l1.303.752 1.504-2.607-1.304-.752z" fill="#0D84DA"/><path d="M17.058 24.978l2.733-3.507a6.27 6.27 0 0 0 1.308-3.846 3.39 3.39 0 0 0-3.386-3.385 3.39 3.39 0 0 0-3.385 3.385v1.129h1.505v-1.129c0-1.036.844-1.88 1.88-1.88 1.037 0 1.881.844 1.881 1.883a4.764 4.764 0 0 1-.992 2.92l-2.732 3.508a7.4 7.4 0 0 0-1.542 4.474.75.75 0 0 0 .753.756h6.018v-1.505h-5.213a5.889 5.889 0 0 1 1.172-2.803zm6.525-.206l2.757-10.338-1.453-.388-3.01 11.284a.752.752 0 0 0 .727.947h7.523v-1.505h-6.544z" fill="#323232"/><path d="M28.624 22.516h-1.505v6.77h1.505v-6.77z" fill="#323232"/></g><defs><clipPath id="clip0"><path fill="#fff" d="M0 0h45v45H0z"/></clipPath></defs></svg>