<svg width="44" height="44" fill="none" xmlns="http://www.w3.org/2000/svg"><path d="M21.208 18.356h.673a.602.602 0 0 0 0-1.203h-.645l.24-1.584a.603.603 0 0 0-.504-.685.601.601 0 0 0-.685.505L20.043 17a1.18 1.18 0 0 0 1.165 1.356zm-3.865-3.03a1.432 1.432 0 1 0 0-2.865 1.432 1.432 0 0 0 0 2.865zm7.562 0a1.432 1.432 0 1 0 0-2.865 1.432 1.432 0 0 0 0 2.865zm-6.502 4.506a.602.602 0 0 0-.082.847 3.566 3.566 0 0 0 2.76 1.15 3.566 3.566 0 0 0 2.758-1.15.601.601 0 1 0-.928-.765 2.4 2.4 0 0 1-1.83.711 2.4 2.4 0 0 1-1.832-.712.602.602 0 0 0-.846-.081z" fill="#323232"/><path d="M34.688 30.088a15.797 15.797 0 0 0-2.925-.423c-.63-.066-1.586-.097-2.983-.26a4.474 4.474 0 0 1-1.166-.257 1.87 1.87 0 0 1-1.049-1.392l-.332-2.595a8.128 8.128 0 0 0 2.427-3.266c.35-.952.61-1.935.776-2.936l.05-.247c.156.027.313.042.471.043a2.94 2.94 0 0 0 2.716-4.075V7.902A7.91 7.91 0 0 0 24.77 0h-7.294a7.911 7.911 0 0 0-7.903 7.902V14.5a2.928 2.928 0 0 0 3.184 4.198l.053.26c.165 1.002.425 1.986.776 2.939a8.12 8.12 0 0 0 2.427 3.266l-.331 2.59a1.733 1.733 0 0 1-.047.214 1.906 1.906 0 0 1-1.056 1.2c-.746.264-1.125.24-3.057.393-.263.017-.527.035-.79.054a16.6 16.6 0 0 0-3.175.476 8.325 8.325 0 0 0-6.114 8.01v5.3a.602.602 0 0 0 .602.6H40.2a.602.602 0 0 0 .602-.602V38.1a8.325 8.325 0 0 0-6.115-8.01zm-4.73-12.537a1.667 1.667 0 0 1-.222-.023l.404-1.849c.11-.515.171-1.04.181-1.566a1.738 1.738 0 0 1-.364 3.438zM17.475 1.204h7.294a6.707 6.707 0 0 1 6.7 6.699v5.39a2.917 2.917 0 0 0-1.144-.396v-.99a3.011 3.011 0 0 0-3.008-3.009H25.11a.602.602 0 0 0-.298.08l-.292.167a12.159 12.159 0 0 1-6.021 1.599H12.52a.602.602 0 0 0-.601.6v1.54c-.402.04-.791.16-1.144.358V7.9a6.707 6.707 0 0 1 6.7-6.698zm-7.012 14.61a1.738 1.738 0 0 1 1.46-1.711c.01.531.07 1.06.182 1.58l.403 1.84a1.72 1.72 0 0 1-.306.03 1.741 1.741 0 0 1-1.74-1.74zm4.237 5.63a15.174 15.174 0 0 1-.71-2.717c.01-.012-.62-2.904-.71-3.3a7.059 7.059 0 0 1-.158-1.48v-2h5.376a13.36 13.36 0 0 0 6.618-1.758l.154-.088h2.047a1.807 1.807 0 0 1 1.805 1.805v2.04a7 7 0 0 1-.159 1.479c-.367 1.718-.328 1.418-.708 3.301-.153.926-.39 1.835-.71 2.716a6.916 6.916 0 0 1-2.239 2.914.608.608 0 0 0-.129.094 6.948 6.948 0 0 1-8.11 0 .586.586 0 0 0-.13-.094 6.917 6.917 0 0 1-2.237-2.912zm6.422 5.517a8.142 8.142 0 0 0 3.994-1.041l.255 1.99.004.028a6.032 6.032 0 0 1-8.506 0l.005-.027.254-1.99a8.14 8.14 0 0 0 3.994 1.04zM16.4 29.139a7.226 7.226 0 0 0 9.438.005c.2.322.463.6.773.82l-.425.992-4.944 11.55-1.671-3.715-3.97-8.831c.314-.223.585-.5.799-.821zm-13.754 8.96a7.12 7.12 0 0 1 5.23-6.85 12.842 12.842 0 0 1 2.07-.362l-.66 2.2a.602.602 0 0 0 .369.738l3.392 1.244-1.056 1.967a.602.602 0 0 0 .075.678l4.393 5.083H2.646v-4.698zm15.403 4.698l-4.802-5.558 1.187-2.214a.6.6 0 0 0-.323-.849l-3.51-1.287.632-2.106.368-.024c.64-.042 1.302-.085 1.952-.16.324-.006.645-.051.958-.134l5.544 12.332H18.05zm9.666-12.354c.3.068.604.12.91.154.619.078.673.081 2.396.214l.624 2.078-3.51 1.287a.602.602 0 0 0-.322.849L29 37.239l-4.803 5.558h-1.771l5.289-12.354zM39.6 42.797H25.787l4.393-5.086a.601.601 0 0 0 .074-.677l-1.053-1.967 3.39-1.242a.601.601 0 0 0 .37-.738l-.651-2.166c.695.05 1.385.16 2.06.33a7.12 7.12 0 0 1 5.23 6.851v4.695z" fill="#0D84DA"/><path d="M34.615 38.586H34.1v-.515a.602.602 0 0 0-1.203 0v.515h-.516a.602.602 0 1 0 0 1.204h.516v.515a.602.602 0 0 0 1.203 0v-.515h.515a.602.602 0 1 0 0-1.204z" fill="#323232"/></svg>