<svg width="56" height="56" fill="none" xmlns="http://www.w3.org/2000/svg"><path d="M43.969 43.313a1.094 1.094 0 1 0 0-2.188 1.094 1.094 0 0 0 0 2.188zm-31.281 0a1.094 1.094 0 1 0 0-2.188 1.094 1.094 0 0 0 0 2.188zm3.281-25.157v3.282h-3.281c-.604 0-1.094.49-1.094 1.093v4.375c0 .604.49 1.094 1.094 1.094h3.28v3.281c0 .604.49 1.094 1.095 1.094h4.375c.604 0 1.093-.49 1.093-1.094V28h3.282c.604 0 1.093-.49 1.093-1.094v-4.375c0-.604-.49-1.093-1.093-1.093H22.53v-3.282c0-.604-.49-1.093-1.093-1.093h-4.375c-.604 0-1.094.49-1.094 1.093zm2.187 4.375V19.25h2.188v3.281c0 .604.49 1.094 1.093 1.094h3.282v2.188h-3.282c-.604 0-1.093.49-1.093 1.093v3.282h-2.188v-3.282c0-.604-.49-1.093-1.093-1.093H13.78v-2.188h3.281c.604 0 1.094-.49 1.094-1.094z" fill="#0B93F0"/><path d="M51.443 25.89l-2.027-10.136a1.094 1.094 0 0 0-1.072-.879h-2.188v-1.64a3.832 3.832 0 0 0-3.828-3.829 3.832 3.832 0 0 0-3.828 3.828v1.641h-2.188V9.406c0-.604-.49-1.094-1.093-1.094H24.172a1.094 1.094 0 0 0 0 2.188h9.953v30.625H18.046a5.478 5.478 0 0 0-5.358-4.375 5.478 5.478 0 0 0-5.36 4.375h-5.14V10.5h12.14a1.094 1.094 0 0 0 0-2.188H1.094A1.096 1.096 0 0 0 0 9.406V42.22c0 .604.49 1.093 1.094 1.093h6.235a5.478 5.478 0 0 0 5.359 4.376 5.478 5.478 0 0 0 5.358-4.376H38.61a5.478 5.478 0 0 0 5.359 4.376 5.478 5.478 0 0 0 5.358-4.376h5.58c.603 0 1.093-.49 1.093-1.093V31.28a5.477 5.477 0 0 0-4.557-5.391zM40.688 13.234c0-.904.735-1.64 1.64-1.64.905 0 1.64.736 1.64 1.64v1.641h-3.28v-1.64zm6.76 3.829l1.75 8.75H36.311v-8.75h11.135zM12.687 45.5a3.285 3.285 0 0 1-3.282-3.281 3.285 3.285 0 0 1 3.281-3.282 3.285 3.285 0 0 1 3.282 3.282 3.285 3.285 0 0 1-3.281 3.281zm31.28 0a3.285 3.285 0 0 1-3.28-3.281 3.285 3.285 0 0 1 3.28-3.282 3.285 3.285 0 0 1 3.282 3.282 3.285 3.285 0 0 1-3.281 3.281zm5.36-4.375a5.478 5.478 0 0 0-5.36-4.375 5.478 5.478 0 0 0-5.358 4.375h-2.297V28h14.22a3.285 3.285 0 0 1 3.28 3.281v1.094H50.53a1.094 1.094 0 0 0 0 2.188h3.282v6.562h-4.486z" fill="#0B93F0"/><path d="M19.25 10.5a1.094 1.094 0 1 0 0-2.188 1.094 1.094 0 0 0 0 2.188z" fill="#0B93F0"/></svg>