<svg width="47" height="47" fill="none" xmlns="http://www.w3.org/2000/svg"><g clip-path="url(#clip0)"><path d="M9.577 31.242c4.636 5.542 10.216 9.905 16.586 12.992 2.425 1.15 5.668 2.513 9.28 2.746.225.01.439.02.663.02 2.425 0 4.373-.837 5.96-2.561.01-.01.03-.03.04-.049.564-.682 1.207-1.295 1.879-1.948a45.19 45.19 0 0 0 1.373-1.363c2.074-2.162 2.074-4.909-.02-7.002l-5.853-5.854c-.993-1.032-2.181-1.577-3.428-1.577-1.246 0-2.444.545-3.467 1.568L29.104 31.7c-.322-.185-.653-.35-.964-.506-.39-.195-.75-.38-1.072-.585-3.175-2.016-6.057-4.645-8.813-8.025-1.393-1.762-2.328-3.242-2.98-4.752.915-.828 1.772-1.695 2.6-2.542.292-.302.594-.604.896-.906 1.052-1.051 1.616-2.269 1.616-3.506 0-1.236-.555-2.454-1.616-3.506L15.869 4.47c-.341-.34-.663-.672-.994-1.013A53.405 53.405 0 0 0 12.898 1.5C11.895.516 10.717 0 9.47 0 8.233 0 7.045.516 6.003 1.51L2.361 5.152C1.036 6.476.286 8.083.13 9.943c-.186 2.328.243 4.802 1.353 7.792 1.705 4.625 4.276 8.92 8.093 13.507zm-7.07-21.094c.117-1.295.613-2.376 1.548-3.311l3.623-3.623c.565-.546 1.188-.828 1.792-.828.594 0 1.198.282 1.753.847.653.604 1.266 1.237 1.928 1.91.332.34.672.68 1.013 1.031l2.903 2.903c.603.603.915 1.217.915 1.82 0 .605-.312 1.218-.915 1.822-.302.302-.604.614-.906.915-.906.916-1.753 1.783-2.688 2.61l-.049.05c-.808.808-.682 1.577-.487 2.161.01.03.02.049.03.078.75 1.802 1.791 3.516 3.418 5.561 2.921 3.604 5.999 6.398 9.388 8.55.419.273.867.488 1.286.702.39.195.75.38 1.07.584.04.02.069.04.108.059.321.165.633.243.945.243.779 0 1.285-.496 1.45-.662l3.643-3.642c.565-.565 1.178-.867 1.782-.867.74 0 1.344.458 1.724.867l5.873 5.863c1.168 1.168 1.159 2.434-.03 3.671-.409.438-.837.857-1.295 1.295-.681.663-1.392 1.344-2.035 2.114-1.12 1.207-2.454 1.772-4.178 1.772a8.59 8.59 0 0 1-.507-.02c-3.194-.204-6.164-1.45-8.395-2.512-6.057-2.931-11.375-7.09-15.786-12.368-3.633-4.373-6.077-8.444-7.694-12.807-1.003-2.678-1.383-4.83-1.227-6.788z" fill="#0B93F0"/></g><defs><clipPath id="clip0"><path fill="#fff" d="M0 0h47v47H0z"/></clipPath></defs></svg>