<svg width="52" height="52" fill="none" xmlns="http://www.w3.org/2000/svg"><g clip-path="url(#clip0)" fill="#0B93F0"><path d="M37.898 2.044L7.892.037A1.78 1.78 0 0 0 6 1.69L5.765 5.2H1.777A1.78 1.78 0 0 0 0 6.978V50.19c0 .98.797 1.777 1.777 1.777h22.968a.77.77 0 0 0 .537-.222l3.467-3.451a.752.752 0 0 0 .109.015l5.919.396c.945.063 1.828-.706 1.892-1.654l2.884-43.115a1.793 1.793 0 0 0-1.655-1.892zM25.506 49.362V44.07c0-.14.114-.254.254-.254h5.271l-5.524 5.546zm9.643-2.413c-.025.153-.115.232-.27.236l-4.7-.314 3.224-3.21a.762.762 0 0 0 .224-.54V6.979A1.78 1.78 0 0 0 31.85 5.2h-7.92c-.985 0-.985 1.524 0 1.524h7.921c.14 0 .254.114.254.254v35.314H25.76a1.78 1.78 0 0 0-1.777 1.777v6.374H1.777a.254.254 0 0 1-.254-.254V6.979c0-.14.114-.254.254-.254h18.096c.984 0 .984-1.524 0-1.524H7.292l.227-3.408c.025-.153.115-.232.27-.236l30.006 2.007c.153.024.232.115.236.27L35.15 46.949z"/><path d="M27.2 24.075H6.427a.762.762 0 1 0 0 1.523H27.2a.762.762 0 1 0 0-1.523zm0 5.31H6.427a.762.762 0 1 0 0 1.524H27.2a.762.762 0 1 0 0-1.524zM5.664 19.527c0 .42.341.761.762.761H27.2a.762.762 0 1 0 0-1.523H6.426a.762.762 0 0 0-.762.762zm3.66-5.311c0 .421.341.762.762.762h13.456a.762.762 0 1 0 0-1.523H10.086a.762.762 0 0 0-.762.761zM19.78 44.564a3753.826 3753.826 0 0 1-5.492.01c-.834.001-1.396-.166-1.583-1.084-.158-.776-1.256-.672-1.47 0-.526 1.66-1.398 1.01-1.886-.107-.488-1.113-.613-2.36-.825-3.544-.157-.871-1.474-.627-1.497.202-.03 1.092-.132 2.167-.409 3.226-.286 1.092-.714 2.142-1.14 3.186-.37.91 1.104 1.302 1.47.405.376-.925.754-1.855 1.034-2.815.523 1.256 1.603 2.676 3.141 1.839.287-.156.554-.377.789-.635.8.925 1.991.852 3.106.85 1.587-.002 3.174-.005 4.761-.01.98-.002.982-1.525 0-1.523zm31.603-19.535c-.395-.394-.94-.596-1.492-.61l-.576.002v-1.089c0-.663-.394-1.363-.958-1.712v-1.534c0-3.155-4.913-3.141-4.913.015v1.534c-.574.355-.96.99-.96 1.711v1.116c-2.535.172-2.543 4.036.003 4.187.016 3.41.015 6.764-.003 10.231-.005.957 1.518 1.013 1.524.008.018-3.47.019-6.827.002-10.24l3.78-.018s-.005 11.258-.005 16.33c0 2.471-3.78 2.488-3.78-.026l.001-1.39c.06-.982-1.461-1.074-1.52-.091v1.303c0 1.117.345 2.064 1.014 2.73a6.37 6.37 0 0 0 1.865 4.26c.326.323.777.225 1.092-.018a6.281 6.281 0 0 0 1.845-4.308c.503-.5 1.006-1.005 1.006-2.731v-6.942C50.627 38.12 52 37.102 52 35.72v-9.209c0-.56-.22-1.088-.617-1.483zm-7.375-.582v-1.1a.49.49 0 0 1 .362-.471l3.05-.015a.482.482 0 0 1 .372.471v1.097l-3.784.018zm1.896-5.281c.467 0 .93.459.93.92v1.236l-1.866.01v-1.23a.94.94 0 0 1 .936-.936zm-.001 30.865a4.86 4.86 0 0 1-.754-1.666c.236.05.475.078.714.078.267 0 .534-.034.796-.098a4.75 4.75 0 0 1-.756 1.686zm4.573-14.31c0 .721-1.163.778-1.163.013l.002-7.869a.768.768 0 0 0-.767-.762l-5.93.029c-.736 0-.719-1.15.007-1.154l7.273-.036c.352.03.545.22.578.57v9.209z"/></g><defs><clipPath id="clip0"><path fill="#fff" d="M0 0h52v52H0z"/></clipPath></defs></svg>