<svg width="17" height="17" fill="none" xmlns="http://www.w3.org/2000/svg"><g clip-path="url(#clip0)" fill="#0D84DA"><path d="M16.85 3.378L11.694 8.5l5.156 5.123c.093-.195.15-.41.15-.64V4.018c0-.23-.057-.445-.15-.64zm-1.344-.855H1.495c-.23 0-.446.057-.64.15l6.59 6.557c.582.582 1.53.582 2.112 0l6.59-6.557a1.477 1.477 0 0 0-.64-.15zM.15 3.378a1.48 1.48 0 0 0-.15.64v8.965c0 .23.057.445.15.64L5.305 8.5.15 3.378z"/><path d="M10.99 9.204l-.729.73c-.97.97-2.55.97-3.521 0l-.73-.73-5.156 5.123c.195.093.41.15.64.15h14.012c.23 0 .446-.057.64-.15l-5.155-5.123z"/></g><defs><clipPath id="clip0"><path fill="#fff" d="M0 0h17v17H0z"/></clipPath></defs></svg>