<svg width="21" height="21" fill="none" xmlns="http://www.w3.org/2000/svg"><g clip-path="url(#clip0)" fill="#fff"><path d="M17.297 5.02h-3.488a1.255 1.255 0 0 0 0-.103V2.909a.99.99 0 0 0-.99-.99H8.167a.99.99 0 0 0-.985.99V4.9a1.246 1.246 0 0 0 0 .103H3.703C1.931 5.003 0 5.973 0 8.706V15.7c0 2.734 1.911 3.704 3.703 3.704h13.594c1.772 0 3.703-.97 3.703-3.704V8.724c0-2.711-1.917-3.704-3.703-3.704zm-9.229-.103V2.909c0-.057.047-.102.103-.102h4.662a.1.1 0 0 1 .101.102V4.9a.103.103 0 0 1-.1.103H8.166a.102.102 0 0 1-.099-.086zm12.046 10.78c0 2.543-1.972 2.817-2.817 2.817H3.703c-.845 0-2.817-.274-2.817-2.817V8.724c0-2.541 1.972-2.817 2.817-2.817h13.594c.845 0 2.817.276 2.817 2.817v6.973z"/><path d="M13.916 10.524h-1.727V8.798a.443.443 0 0 0-.443-.443H9.254a.443.443 0 0 0-.443.443v1.726H7.084c-.244 0-.443.2-.443.444v2.488c0 .245.2.445.443.445H8.81v1.725c0 .245.198.443.443.443h2.492a.443.443 0 0 0 .443-.443v-1.725h1.727c.243 0 .443-.2.443-.445v-2.488c0-.244-.2-.444-.443-.444zm-.445 2.49h-1.725a.443.443 0 0 0-.443.442v1.727H9.697v-1.727a.444.444 0 0 0-.443-.443H7.528v-1.602h1.726c.244 0 .443-.2.443-.443V9.241h1.606v1.727c0 .244.198.443.443.443h1.725v1.602z"/></g><defs><clipPath id="clip0"><path fill="#fff" d="M0 0h21v21H0z"/></clipPath></defs></svg>