<svg width="82" height="81" fill="none" xmlns="http://www.w3.org/2000/svg"><path d="M36.63 46.778h-.05v2.631h2.663V46.78h-2.612zm5.076 2.581v.05h2.664v-.05l-.002-2.53v-.05h-2.662v2.579zm-5.075-5.012h7.687c1.387 0 2.513 1.113 2.513 2.481v2.531c0 1.368-1.127 2.482-2.513 2.482h-7.687c-1.386 0-2.513-1.114-2.513-2.482v-2.53c0-1.369 1.127-2.482 2.513-2.482zm15.325-7.644c0 2.764-2.276 5.013-5.075 5.013-2.8 0-5.075-2.25-5.075-5.013v-1.266c0-2.065 1.702-3.746 3.794-3.746h1.28c2.8 0 5.076 2.248 5.076 5.012zM45.6 34.122c-.733 0-1.332.589-1.332 1.316v1.265c0 1.424 1.173 2.581 2.613 2.581s2.612-1.157 2.612-2.58c0-1.425-1.172-2.582-2.612-2.582H45.6zm-6.457 2.581c0 2.764-2.275 5.013-5.075 5.013-2.799 0-5.075-2.25-5.075-5.013 0-2.764 2.276-5.012 5.075-5.012h1.282c2.092 0 3.793 1.681 3.793 3.747v1.265zm-3.793-2.581h-1.282c-1.44 0-2.612 1.157-2.612 2.581s1.172 2.581 2.612 2.581c1.44 0 2.613-1.157 2.613-2.58v-1.267c0-.726-.598-1.315-1.331-1.315z" fill="#0D84DA" stroke="#0D84DA" stroke-width=".1"/><mask id="a" fill="#fff"><path d="M64.785 66.65l-3.179-34.546c-.424-4.593-4.264-8.057-8.933-8.057h-3.23v-2.531c0-1.396-1.149-2.532-2.562-2.532v-2.53h.357a2.557 2.557 0 0 0 2.43-1.731l2.44-7.227-2.447-4.83a2.549 2.549 0 0 0-2.29-1.4H33.578c-.978 0-1.855.536-2.292 1.398L28.84 7.496l2.438 7.227a2.56 2.56 0 0 0 2.432 1.73h.357v2.531c-1.413 0-2.562 1.136-2.562 2.532v2.53h-3.23c-4.67 0-8.51 3.465-8.933 8.058l-3.179 34.545a8.077 8.077 0 0 0 1.51 5.5l3.952 5.467a5.158 5.158 0 0 0 4.17 2.118h29.357c1.651 0 3.21-.792 4.17-2.12l3.951-5.465a8.074 8.074 0 0 0 1.511-5.499zm-5.732-34.316l2.675 29.06a3.84 3.84 0 0 0-3.316-1.91c-.443 0-.876.046-1.294.13 0-.044.013-.085.013-.13V35.437h-.044c-.25-3.606-2.087-6.782-4.829-8.859h.414c3.337 0 6.08 2.474 6.38 5.756zM52.11 67.078H28.84c.061-.415.103-.835.103-1.266 0-.437-.046-.865-.132-1.278.045 0 .087.013.132.013h23.063c.045 0 .087-.013.132-.013a6.26 6.26 0 0 0-.132 1.278c0 .43.042.851.104 1.266zM26.38 43.694a12.196 12.196 0 0 0 2.392 2.373l.171.128v3.164c0 4.188 3.448 7.594 7.688 7.594h7.687c4.24 0 7.688-3.406 7.688-7.594v-3.164l.17-.127a12.173 12.173 0 0 0 2.392-2.374v15.79c0 1.396-1.149 2.532-2.562 2.532H28.943c-1.413 0-2.562-1.136-2.562-2.532v-15.79zm9.824-17.116h8.542c5.416 0 9.822 4.353 9.822 9.704 0 3.037-1.468 5.938-3.93 7.762l-1.195.886v4.43c0 2.791-2.298 5.062-5.125 5.062h-7.687c-2.827 0-5.125-2.27-5.125-5.063v-4.43l-1.195-.885c-2.462-1.824-3.93-4.725-3.93-7.762 0-5.351 4.406-9.704 9.823-9.704zM47.37 3.797l1.282 2.531H32.297l1.28-2.531H47.37zM32.002 8.859h16.945l-1.707 5.063H33.71l-1.708-5.063zm4.629 7.594h7.687v2.531h-7.687v-2.53zm-2.563 5.063h12.813v2.53H34.068v-2.53zM21.897 32.334c.3-3.282 3.044-5.756 6.379-5.756h.414c-2.742 2.077-4.578 5.253-4.83 8.86h-.042v24.046c0 .045.013.086.013.13a6.502 6.502 0 0 0-1.294-.13 3.84 3.84 0 0 0-3.314 1.909l2.674-29.059zm-3.204 35.058c0-.17.008-.342.025-.511l.214-2.328a3.834 3.834 0 0 0 3.605 2.525h1.281v-2.531h-1.28a1.275 1.275 0 0 1-1.282-1.266c0-.698.575-1.265 1.281-1.265 2.12 0 3.844 1.703 3.844 3.797 0 3.195-2.473 5.858-5.622 6.248l-1-1.382a5.582 5.582 0 0 1-1.066-3.287zm36.46 9.811H25.797a2.575 2.575 0 0 1-2.085-1.06l-1.313-1.815a9.037 9.037 0 0 0 5.655-4.719h24.841a9.04 9.04 0 0 0 5.655 4.719l-1.311 1.814a2.577 2.577 0 0 1-2.086 1.061zm6.036-6.524l-1 1.382c-3.147-.391-5.62-3.054-5.62-6.249 0-2.093 1.724-3.796 3.843-3.796.706 0 1.281.567 1.281 1.265 0 .699-.575 1.266-1.28 1.266H57.13v2.531h1.281a3.837 3.837 0 0 0 3.607-2.526l.214 2.33a5.574 5.574 0 0 1-1.044 3.797z"/></mask><path d="M64.785 66.65l-3.179-34.546c-.424-4.593-4.264-8.057-8.933-8.057h-3.23v-2.531c0-1.396-1.149-2.532-2.562-2.532v-2.53h.357a2.557 2.557 0 0 0 2.43-1.731l2.44-7.227-2.447-4.83a2.549 2.549 0 0 0-2.29-1.4H33.578c-.978 0-1.855.536-2.292 1.398L28.84 7.496l2.438 7.227a2.56 2.56 0 0 0 2.432 1.73h.357v2.531c-1.413 0-2.562 1.136-2.562 2.532v2.53h-3.23c-4.67 0-8.51 3.465-8.933 8.058l-3.179 34.545a8.077 8.077 0 0 0 1.51 5.5l3.952 5.467a5.158 5.158 0 0 0 4.17 2.118h29.357c1.651 0 3.21-.792 4.17-2.12l3.951-5.465a8.074 8.074 0 0 0 1.511-5.499zm-5.732-34.316l2.675 29.06a3.84 3.84 0 0 0-3.316-1.91c-.443 0-.876.046-1.294.13 0-.044.013-.085.013-.13V35.437h-.044c-.25-3.606-2.087-6.782-4.829-8.859h.414c3.337 0 6.08 2.474 6.38 5.756zM52.11 67.078H28.84c.061-.415.103-.835.103-1.266 0-.437-.046-.865-.132-1.278.045 0 .087.013.132.013h23.063c.045 0 .087-.013.132-.013a6.26 6.26 0 0 0-.132 1.278c0 .43.042.851.104 1.266zM26.38 43.694a12.196 12.196 0 0 0 2.392 2.373l.171.128v3.164c0 4.188 3.448 7.594 7.688 7.594h7.687c4.24 0 7.688-3.406 7.688-7.594v-3.164l.17-.127a12.173 12.173 0 0 0 2.392-2.374v15.79c0 1.396-1.149 2.532-2.562 2.532H28.943c-1.413 0-2.562-1.136-2.562-2.532v-15.79zm9.824-17.116h8.542c5.416 0 9.822 4.353 9.822 9.704 0 3.037-1.468 5.938-3.93 7.762l-1.195.886v4.43c0 2.791-2.298 5.062-5.125 5.062h-7.687c-2.827 0-5.125-2.27-5.125-5.063v-4.43l-1.195-.885c-2.462-1.824-3.93-4.725-3.93-7.762 0-5.351 4.406-9.704 9.823-9.704zM47.37 3.797l1.282 2.531H32.297l1.28-2.531H47.37zM32.002 8.859h16.945l-1.707 5.063H33.71l-1.708-5.063zm4.629 7.594h7.687v2.531h-7.687v-2.53zm-2.563 5.063h12.813v2.53H34.068v-2.53zM21.897 32.334c.3-3.282 3.044-5.756 6.379-5.756h.414c-2.742 2.077-4.578 5.253-4.83 8.86h-.042v24.046c0 .045.013.086.013.13a6.502 6.502 0 0 0-1.294-.13 3.84 3.84 0 0 0-3.314 1.909l2.674-29.059zm-3.204 35.058c0-.17.008-.342.025-.511l.214-2.328a3.834 3.834 0 0 0 3.605 2.525h1.281v-2.531h-1.28a1.275 1.275 0 0 1-1.282-1.266c0-.698.575-1.265 1.281-1.265 2.12 0 3.844 1.703 3.844 3.797 0 3.195-2.473 5.858-5.622 6.248l-1-1.382a5.582 5.582 0 0 1-1.066-3.287zm36.46 9.811H25.797a2.575 2.575 0 0 1-2.085-1.06l-1.313-1.815a9.037 9.037 0 0 0 5.655-4.719h24.841a9.04 9.04 0 0 0 5.655 4.719l-1.311 1.814a2.577 2.577 0 0 1-2.086 1.061zm6.036-6.524l-1 1.382c-3.147-.391-5.62-3.054-5.62-6.249 0-2.093 1.724-3.796 3.843-3.796.706 0 1.281.567 1.281 1.265 0 .699-.575 1.266-1.28 1.266H57.13v2.531h1.281a3.837 3.837 0 0 0 3.607-2.526l.214 2.33a5.574 5.574 0 0 1-1.044 3.797z" fill="#0D84DA" stroke="#0D84DA" stroke-width=".2" mask="url(#a)"/></svg>