<svg width="70" height="69" fill="none" xmlns="http://www.w3.org/2000/svg"><g clip-path="url(#clip0)" fill="#0D84DA"><path d="M38.5 27.6c0-3.881-3.325-6.986-7.087-6.9-.875-5.865-5.95-10.35-12.163-10.35-4.725 0-9.012 2.76-11.025 6.9C3.675 17.51 0 21.304 0 25.875 0 30.62 3.938 34.5 8.75 34.5H31.5c3.85 0 7-3.105 7-6.9zm-35-1.725c0-2.846 2.362-5.175 5.25-5.175 1.137 0 1.925-.259 2.275-1.121 1.225-3.45 4.55-5.779 8.225-5.779 4.813 0 8.75 3.881 8.75 8.539v.345c0 .604.262 1.121.7 1.466.438.345 1.05.431 1.663.259 2.624-.949 4.724.949 4.724 3.191 0 1.898-1.575 3.45-3.5 3.45H8.75c-2.888 0-5.25-2.329-5.25-5.175zm9.188 12.161c-.962-.259-1.925.345-2.1 1.294l-1.75 6.9a1.653 1.653 0 0 0 1.313 2.07c.175 0 .262.086.437.086.788 0 1.488-.517 1.663-1.294l1.75-6.9c.175-1.035-.35-1.983-1.313-2.156zm4.375 10.178c.175 0 .262.086.437.086.788 0 1.488-.518 1.663-1.294l1.75-6.9a1.653 1.653 0 0 0-1.313-2.07c-.962-.259-1.925.345-2.1 1.294l-1.75 6.9c-.175.862.35 1.811 1.313 1.984zm7.525-8.97l-1.75 6.9a1.653 1.653 0 0 0 1.313 2.07c.175 0 .262.086.437.086.788 0 1.488-.517 1.663-1.294l1.75-6.9a1.653 1.653 0 0 0-1.313-2.07c-.962-.258-1.925.26-2.1 1.208z"/><path d="M69.825 38.899L63 25.444C62.737 11.385 51.1 0 36.75 0a26.602 26.602 0 0 0-14.438 4.226c-.787.518-1.05 1.553-.525 2.415.525.777 1.663 1.035 2.45.518C28 4.744 32.287 3.45 36.75 3.45c12.512 0 22.75 10.091 22.75 22.425 0 .259.087.517.175.776L65.45 37.95h-4.2c-.963 0-1.75.776-1.75 1.725V48.3c0 1.898-1.575 3.45-3.5 3.45h-8.75c-.963 0-1.75.776-1.75 1.725V65.55H21c-.088-4.054-.613-8.021-1.488-12.42-.262-.949-1.137-1.553-2.1-1.38-.962.172-1.575 1.121-1.4 2.07 1.05 4.83 1.488 9.056 1.488 13.455 0 .949.787 1.725 1.75 1.725h28c.962 0 1.75-.776 1.75-1.725V55.2h7c3.85 0 7-3.105 7-6.9v-6.9h5.25c.612 0 1.137-.345 1.487-.776.35-.518.35-1.208.088-1.725z"/></g><defs><clipPath id="clip0"><path fill="#fff" d="M0 0h70v69H0z"/></clipPath></defs></svg>