<svg width="72" height="72" fill="none" xmlns="http://www.w3.org/2000/svg"><path d="M23.187 13.94V8.604h3.927v5.336h-3.927z" fill="#fff" stroke="#fff" stroke-width=".3"/><path d="M63.93 33.252v.25h2.394v3.727h-6.622v16.454c0 9.962-8.105 18.067-18.067 18.067h-.282c-9.256 0-16.909-6.999-17.946-15.982l-.025-.221h-1.755c-8.796 0-15.953-7.157-15.953-15.954V12.822c0-2.581 2.1-4.682 4.681-4.682h2.364v-1.8a6.098 6.098 0 0 1 6.09-6.09H31.49a6.098 6.098 0 0 1 6.09 6.09v1.8h2.364c2.581 0 4.682 2.1 4.682 4.682v26.771c0 8.796-7.157 15.953-15.954 15.953h-1.54l.043.288c1.04 6.89 7.001 12.189 14.178 12.189h.282c7.907 0 14.34-6.433 14.34-14.34V37.229h-6.622v-3.727h2.395V31.14a6.1 6.1 0 0 1 4.06-5.741l.167-.06V8.846h3.727V25.34l.167.059a6.1 6.1 0 0 1 4.06 5.741v2.113zM40.648 18.567h.25v-5.745a.955.955 0 0 0-.955-.955h-6.09V6.34a2.366 2.366 0 0 0-2.364-2.363H18.81a2.366 2.366 0 0 0-2.364 2.363v5.527h-6.09a.955.955 0 0 0-.955.955v5.745h31.248zm.25 3.977v-.25H9.651h0v.25h-.25v10.15l.283-.038c5.34-.706 10.642.359 15.84 1.407l.015.004c5.22 1.052 10.231 2.063 15.148 1.309l.212-.033V22.544zM9.611 36.431l-.21.034v3.128c0 6.742 5.484 12.226 12.226 12.226h7.046c6.741 0 12.226-5.484 12.226-12.226v-.48l-.281.036c-5.356.678-10.646-.386-15.831-1.432l-.023-.005c-5.232-1.055-10.258-2.07-15.153-1.281zm45.864-3.178v.25h4.477v-.25h.25v-2.114a2.366 2.366 0 0 0-2.363-2.363 2.366 2.366 0 0 0-2.364 2.363v2.113z" fill="#0D84DA" stroke="#0D84DA" stroke-width=".5"/></svg>