<svg width="91" height="93" fill="none" xmlns="http://www.w3.org/2000/svg"><path d="M44.054 44.867c0 .901-.714 1.632-1.596 1.632-.882 0-1.597-.73-1.597-1.632 0-.9.715-1.63 1.597-1.63s1.596.73 1.596 1.63zm-12.222-4.383c0 .901-.716 1.631-1.597 1.631-.882 0-1.596-.73-1.596-1.631s.714-1.632 1.596-1.632c.881 0 1.597.73 1.597 1.632zm15.416 12.541c0 .9-.715 1.632-1.596 1.632-.882 0-1.597-.731-1.597-1.632 0-.901.715-1.631 1.596-1.631.882 0 1.597.73 1.597 1.63zm12.47-8.87c0 .901-.715 1.631-1.597 1.631-.881 0-1.596-.73-1.596-1.631s.715-1.632 1.596-1.632c.882 0 1.597.73 1.597 1.632zm-23.896 3.262c0 .901-.715 1.632-1.596 1.632-.882 0-1.597-.73-1.597-1.632 0-.9.715-1.63 1.597-1.63s1.596.73 1.596 1.63zm14.618-4.181c0 .901-.715 1.631-1.597 1.631s-1.597-.73-1.597-1.63c0-.902.715-1.633 1.597-1.633s1.596.731 1.596 1.632z" fill="#0D84DA"/><path d="M47.247 81.597V60.28a21.97 21.97 0 0 0 15.227-7.803c4.221-5.014 6.084-11.643 5.115-18.183l-4.365-29.43a1.52 1.52 0 0 0-.275-.652C60.852.055 46.316 0 45.651 0c-.663 0-15.076.055-17.271 4.159a1.65 1.65 0 0 0-.308.741l-4.07 27.433a2.48 2.48 0 0 0-.13.77c0 .017.008.034.01.053l-.17 1.14c-.97 6.538.894 13.166 5.115 18.181 3.87 4.6 9.352 7.372 15.227 7.804v21.318c-5.108.116-17.56.89-17.56 5.69C26.493 92.725 42.45 93 45.65 93c3.199 0 19.157-.276 19.157-5.71 0-4.804-12.452-5.577-17.561-5.693zM59.233 5.17l-.045.015c-.212.07-.453.142-.73.213-.023.007-.05.012-.074.018-.288.074-.607.147-.965.219l-.034.008a28.2 28.2 0 0 1-1.176.207c-.065.01-.129.021-.194.03a41.476 41.476 0 0 1-1.59.212 52.14 52.14 0 0 1-1.624.16l-.065.008a71.156 71.156 0 0 1-2.22.147c-.651.034-1.338.06-2.06.081-.128.003-.262.007-.394.008-.767.018-1.562.031-2.412.031a110.933 110.933 0 0 1-2.82-.04 86.856 86.856 0 0 1-2.411-.099 63.566 63.566 0 0 1-1.833-.125l-.043-.004a49.84 49.84 0 0 1-1.64-.165l-.273-.03a39.156 39.156 0 0 1-1.358-.185l-.197-.03a27.46 27.46 0 0 1-1.174-.21c-.356-.072-.67-.145-.957-.216l-.13-.033c-.27-.07-.51-.14-.718-.209l-.028-.01c2.004-.866 6.883-1.907 13.582-1.907 6.697 0 11.578 1.041 13.583 1.906zM30.816 8.165c.017.006.042.012.061.019.276.105.576.206.91.305l.032.01c.338.1.708.194 1.112.286l.074.017c.394.088.827.171 1.289.252l.175.03c.453.075.945.146 1.466.212a53.754 53.754 0 0 0 1.936.204l.3.025c.613.05 1.262.095 1.952.13l.305.015c.72.036 1.473.066 2.28.085l.24.005a119.99 119.99 0 0 0 5.407-.001l.241-.005c.806-.02 1.562-.049 2.282-.085l.303-.015a77.55 77.55 0 0 0 1.951-.13l.3-.025a50.135 50.135 0 0 0 1.686-.173l.252-.031a35.13 35.13 0 0 0 1.64-.243c.461-.08.894-.163 1.29-.25.025-.006.046-.012.072-.017.403-.092.775-.188 1.114-.286l.03-.008c.335-.098.634-.2.912-.305l.059-.02 3.145 21.214c-5.018-2.07-13.84-2.62-18.03-2.62-4.16 0-12.887.54-17.923 2.572l3.137-21.167zm33.012 24.88c-1.563.869-7.087 2.196-18.228 2.196-11.142 0-16.666-1.326-18.229-2.195 1.737-1.214 8.465-3.026 18.229-3.026 9.765 0 16.491 1.812 18.228 3.026zm-32.58 17.303c-3.3-3.92-4.893-8.99-4.517-14.103 4.106 1.798 11.944 2.26 18.868 2.26 6.982 0 14.889-.472 18.966-2.306.389 5.13-1.203 10.219-4.512 14.15-3.612 4.293-8.861 6.755-14.403 6.755-5.541 0-10.79-2.462-14.403-6.756zM45.65 89.735c-8.923 0-14.292-1.48-15.715-2.448 1.337-.908 6.152-2.267 14.118-2.43v1.845c0 .903.715 1.631 1.597 1.631.88 0 1.596-.728 1.596-1.63v-1.846c7.968.163 12.781 1.522 14.118 2.43-1.424.968-6.792 2.448-15.714 2.448z" fill="#0D84DA"/></svg>