<svg width="78" height="78" fill="none" xmlns="http://www.w3.org/2000/svg"><path d="M73.43 19.196H58.805v-7.618c0-2.52-2.05-4.57-4.57-4.57h-30.47c-2.52 0-4.57 2.05-4.57 4.57v7.618H4.57c-2.52 0-4.57 2.05-4.57 4.57v42.656c0 2.52 2.05 4.57 4.57 4.57h68.86c2.52 0 4.57-2.05 4.57-4.57V23.766c0-2.52-2.05-4.57-4.57-4.57zm-14.625 3.046h4.57v4.57c0 .84-.683 1.524-1.523 1.524h-1.524c-.84 0-1.523-.683-1.523-1.523v-4.57zm-35.04-12.187h30.47c.84 0 1.523.683 1.523 1.523v7.618H52.71v-4.571c0-.841-.682-1.523-1.523-1.523H26.811c-.84 0-1.523.682-1.523 1.523v4.57h-3.047v-7.617c0-.84.684-1.523 1.524-1.523zm25.9 10.664c0 .84-.684 1.523-1.524 1.523H29.859c-.84 0-1.523-.683-1.523-1.523v-4.57h21.328v4.57zm-30.47 1.523v4.57c0 .84-.683 1.524-1.523 1.524h-1.524c-.84 0-1.523-.683-1.523-1.523v-4.57h4.57zm-14.625 0h7.008v4.57c0 2.52 2.05 4.571 4.57 4.571h1.524c2.52 0 4.57-2.05 4.57-4.57v-4.57h3.308a4.578 4.578 0 0 0 4.31 3.046h18.28a4.578 4.578 0 0 0 4.31-3.047h3.308v4.57c0 2.52 2.05 4.571 4.57 4.571h1.524c2.52 0 4.57-2.05 4.57-4.57v-4.57h7.008c.84 0 1.523.683 1.523 1.523v38.086H3.047V23.766c0-.84.683-1.523 1.523-1.523zm70.383 44.18c0 .84-.683 1.524-1.523 1.524H4.57c-.84 0-1.523-.684-1.523-1.524V64.9h71.906v1.523z" fill="#0D84DA"/><path d="M35.572 52.711h6.856v-5.713h5.713v-6.855h-5.713V34.43h-6.856v5.713H29.86v6.855h5.713v5.713z" fill="#0D84DA"/></svg>