<svg width="36" height="43" fill="none" xmlns="http://www.w3.org/2000/svg"><path d="M36 20.312V9.052H0v6.79c7.763.113 13.838 1.245 19.744 2.376 5.287 1.075 10.35 1.98 16.256 2.094zM36 6.79V1.131C36 .509 35.494 0 34.875 0H1.125C.506 0 0 .51 0 1.132v5.657h36z" fill="#323232"/><path d="M19.294 20.482C13.5 19.35 7.48 18.218 0 18.105v19.237C0 40.454 2.531 43 5.625 43h24.75C33.469 43 36 40.454 36 37.342V22.575c-6.075-.113-11.25-1.075-16.706-2.093zm-9.169 6.676h-2.25a1.132 1.132 0 0 1 0-2.263h2.25a1.132 1.132 0 0 1 0 2.263zm4.5 6.79h-2.25a1.132 1.132 0 0 1 0-2.264h2.25a1.132 1.132 0 0 1 0 2.263zm9-4.527h-2.25a1.132 1.132 0 0 1 0-2.263h2.25a1.132 1.132 0 0 1 0 2.263zm4.5 6.79h-2.25a1.132 1.132 0 0 1 0-2.264h2.25a1.132 1.132 0 0 1 0 2.264z" fill="#0D84DA"/></svg>