<svg width="46" height="49" fill="none" xmlns="http://www.w3.org/2000/svg"><g clip-path="url(#clip0)"><path d="M45.882 25.2c-.467-1.342-3.502-2.45-6.771-2.8 3.56-4.025 4.962-8.808 4.903-10.267 0-.466-.175-.816-.467-1.05-.175-.175-.759-.641-3.56-.233-1.985.292-6.247 1.342-9.808 4.667.175-5.309-1.926-10.209-4.144-13.184C24.283 0 23.29 0 22.999 0c-.292 0-1.284 0-3.035 2.333-2.219 2.975-4.32 7.875-4.203 13.184-3.503-3.325-7.823-4.375-9.808-4.667-2.802-.467-3.385.058-3.56.233-.292.234-.41.642-.468 1.05-.058 1.459 1.343 6.242 4.904 10.267-3.269.292-6.246 1.458-6.772 2.8-.175.525 0 1.05.234 1.458.934 1.692 4.728 6.009 10.216 7.467.175.058.35.058.467.117-2.277 2.333-4.437 5.716-3.62 7.116.41.759 1.81 1.167 3.561 1.167 2.102 0 4.846-.583 7.064-1.925 1.693-.992 3.094-2.1 4.203-3.267.292 4.9-.817 8.459-3.152 9.45-.584.234-.876.934-.643 1.517.175.467.643.7 1.051.7.175 0 .292 0 .467-.117 3.152-1.283 4.787-5.308 4.612-10.85.992.875 2.101 1.75 3.444 2.509 4.145 2.391 9.632 2.45 10.624.758.818-1.4-1.284-4.725-3.619-7.117.175-.058.35-.058.467-.116 5.487-1.459 9.282-5.775 10.216-7.525.233-.292.467-.817.233-1.342z" fill="#323232"/></g><g clip-path="url(#clip1)"><path d="M45.882 25.2c-.467-1.342-3.502-2.45-6.771-2.8 3.56-4.025 4.962-8.808 4.903-10.267 0-.466-.175-.816-.467-1.05-.175-.175-.759-.641-3.56-.233-1.985.292-6.247 1.342-9.808 4.667.175-5.309-1.926-10.209-4.144-13.184C24.283 0 23.29 0 22.999 0c-.292 0-1.284 0-3.035 2.333-2.219 2.975-4.32 7.875-4.203 13.184-3.503-3.325-7.823-4.375-9.808-4.667-2.802-.467-3.385.058-3.56.233-.292.234-.41.642-.468 1.05-.058 1.459 1.343 6.242 4.904 10.267-3.269.292-6.246 1.458-6.772 2.8-.175.525 0 1.05.234 1.458.934 1.692 4.728 6.009 10.216 7.467.175.058.35.058.467.117-2.277 2.333-4.437 5.716-3.62 7.116.41.759 1.81 1.167 3.561 1.167 2.102 0 4.846-.583 7.064-1.925 1.693-.992 3.094-2.1 4.203-3.267.292 4.9-.817 8.459-3.152 9.45-.584.234-.876.934-.643 1.517.175.467.643.7 1.051.7.175 0 .292 0 .467-.117 3.152-1.283 4.787-5.308 4.612-10.85.992.875 2.101 1.75 3.444 2.509 4.145 2.391 9.632 2.45 10.624.758.818-1.4-1.284-4.725-3.619-7.117.175-.058.35-.058.467-.116 5.487-1.459 9.282-5.775 10.216-7.525.233-.292.467-.817.233-1.342z" fill="#0D84DA"/></g><defs><clipPath id="clip0"><path fill="#fff" d="M0 0h46v49H0z"/></clipPath><clipPath id="clip1"><path fill="#fff" d="M0 0h22v43H0z"/></clipPath></defs></svg>