<svg width="40" height="49" fill="none" xmlns="http://www.w3.org/2000/svg"><path d="M20.062 23.704c-.813-.49-1.938-.306-3.125.49a1.378 1.378 0 0 1-1.375 0c-.75-.49-1.438-.735-2.063-.735-.375 0-.75.061-1 .245-.875.49-1.312 1.715-1.187 3.001.313 3.308 4 6.003 5 6.248 1-.245 4.688-2.88 5-6.248.063-1.347-.375-2.511-1.25-3.001z" fill="#0D84DA"/><path d="M31.25 7.35h-30C.562 7.35 0 7.901 0 8.575v39.2C0 48.449.563 49 1.25 49h30c.688 0 1.25-.551 1.25-1.225v-39.2c0-.674-.563-1.225-1.25-1.225zm-15 28.053c-1.875 0-7-3.737-7.5-8.453-.25-2.266.688-4.349 2.438-5.329 1.437-.857 3.312-.796 5.062.123 1.813-.919 3.625-.98 5.063-.123 1.687.98 2.625 3.124 2.437 5.329-.5 4.655-5.625 8.453-7.5 8.453z" fill="#323232"/><path d="M38.75 0h-30C8.062 0 7.5.551 7.5 1.225V4.9h23.75C33.313 4.9 35 6.554 35 8.575V41.65h3.75c.688 0 1.25-.551 1.25-1.225v-39.2C40 .551 39.437 0 38.75 0z" fill="#0D84DA"/></svg>