<svg width="48" height="48" fill="none" xmlns="http://www.w3.org/2000/svg"><path d="M15.6 1.2c0-.66-.54-1.2-1.2-1.2H9.6c-.66 0-1.2.54-1.2 1.2v3.6h7.2V1.2z" fill="#323232"/><path d="M24 26.4H0V36h24v-9.6z" fill="#0D84DA"/><path d="M0 46.8c0 .66.54 1.2 1.2 1.2h21.6c.66 0 1.2-.54 1.2-1.2v-8.4H0v8.4z" fill="#0B93F0"/><path d="M46.8 16.8H30c-.66 0-1.2.54-1.2 1.2v8.4c0 4.86 3.66 8.88 8.4 9.48v9.72h-3.6c-.66 0-1.2.54-1.2 1.2 0 .66.54 1.2 1.2 1.2h9.6c.66 0 1.2-.54 1.2-1.2 0-.66-.54-1.2-1.2-1.2h-3.6v-9.72c4.74-.6 8.4-4.62 8.4-9.48V18c0-.66-.54-1.2-1.2-1.2zM18 14.4c-1.32 0-2.4-1.08-2.4-2.4V7.2H8.4V12c0 1.32-1.08 2.4-2.4 2.4-3.3 0-6 2.7-6 6V24h24v-3.6c0-3.3-2.7-6-6-6z" fill="#323232"/></svg>