<svg width="54" height="48" fill="none" xmlns="http://www.w3.org/2000/svg"><g clip-path="url(#clip0)"><path d="M52.714 45.437h-1.478c-1.093-3.717-6.107-7.69-11.379-7.69-3.664 0-5.207-1.923-6.878-3.974-1.415-1.73-3.086-3.717-5.979-3.717-3.021 0-5.786 2.115-8.486 4.102-2.378 1.794-4.821 3.588-6.943 3.588-5.528 0-8.292 4.166-8.871 7.69H1.286c-.707 0-1.286.577-1.286 1.282C0 47.423.579 48 1.286 48h51.428c.707 0 1.286-.577 1.286-1.282 0-.705-.579-1.281-1.286-1.281zm-33.428-2.564h-2.572a1.287 1.287 0 0 1-1.285-1.281c0-.706.578-1.282 1.285-1.282h2.572c.707 0 1.285.576 1.285 1.282 0 .704-.578 1.281-1.285 1.281zM27 37.746h-2.571a1.287 1.287 0 0 1-1.286-1.281c0-.705.578-1.282 1.286-1.282H27c.707 0 1.286.577 1.286 1.282 0 .705-.579 1.281-1.286 1.281zm7.714 5.127h-2.571a1.288 1.288 0 0 1-1.286-1.281c0-.706.579-1.282 1.286-1.282h2.571c.707 0 1.286.576 1.286 1.282 0 .704-.579 1.281-1.286 1.281z" fill="#0D84DA"/><path d="M18.708 30.248c.064.128.193.192.321.32 2.379-1.666 5.015-3.14 7.972-3.14 3.021 0 5.014 1.474 6.493 3.012l17.935-10.317c.643-.385.836-1.154.45-1.73-.707-1.218-.257-2.82.965-3.525.642-.385.835-1.154.45-1.73L46.929 2.05c-.385-.641-1.157-.833-1.735-.449-1.222.705-2.829.256-3.536-.961-.386-.641-1.157-.833-1.736-.449l-24.492 14.1c-.643.384-.835 1.153-.45 1.73.708 1.218.258 2.82-.964 3.525-.643.384-.836 1.154-.45 1.73l5.143 8.972zm7.393-10.318l1.093-.64-.643-1.09a1.24 1.24 0 0 1 .45-1.73c.578-.32 1.414-.128 1.735.449l.643 1.089 2.25-1.282-.643-1.09a1.24 1.24 0 0 1 .45-1.73 1.248 1.248 0 0 1 1.736.449l.643 1.09 2.25-1.282-.643-1.09a1.24 1.24 0 0 1 .45-1.73 1.248 1.248 0 0 1 1.736.449l.643 1.09 1.093-.642a1.249 1.249 0 0 1 1.735.449 1.24 1.24 0 0 1-.45 1.73l-1.093.641.643 1.09a1.24 1.24 0 0 1-.45 1.73 1.248 1.248 0 0 1-1.735-.449l-.643-1.09-2.25 1.282.643 1.09a1.24 1.24 0 0 1-.45 1.73 1.249 1.249 0 0 1-1.736-.448l-.643-1.09-2.25 1.282.643 1.09a1.24 1.24 0 0 1-.45 1.73c-.579.32-1.414.128-1.736-.449l-.643-1.09-1.092.641a1.248 1.248 0 0 1-1.736-.448c-.386-.577-.193-1.346.45-1.73z" fill="#323232"/></g><defs><clipPath id="clip0"><path fill="#fff" d="M0 0h54v48H0z"/></clipPath></defs></svg>