<svg width="18" height="18" fill="none" xmlns="http://www.w3.org/2000/svg"><path d="M13.127 0H4.872A4.878 4.878 0 0 0 0 4.872v8.256A4.878 4.878 0 0 0 4.872 18h8.256A4.878 4.878 0 0 0 18 13.128V4.872A4.878 4.878 0 0 0 13.127 0zM9 13.922A4.927 4.927 0 0 1 4.078 9 4.927 4.927 0 0 1 9 4.078 4.927 4.927 0 0 1 13.922 9 4.927 4.927 0 0 1 9 13.922zm5.04-8.683a1.456 1.456 0 0 1-1.455-1.454c0-.802.652-1.455 1.454-1.455.802 0 1.455.653 1.455 1.455s-.653 1.454-1.455 1.454z" fill="#0D84DA"/><path d="M9 5C6.794 5 5 6.794 5 9s1.794 4 4 4 4-1.794 4-4-1.794-4-4-4zm5.04-1.614a.4.4 0 1 0 0 .799.4.4 0 0 0 0-.8z" fill="#0D84DA"/></svg>