<svg width="17" height="17" fill="none" xmlns="http://www.w3.org/2000/svg"><path d="M6.11 13.547h.53v.531h-.53v-.531z" fill="#323232"/><path d="M14.875 16.203v-9.64L8.5 2.237 2.125 6.564v2.835c.38 0 .719.228.862.581.662 1.637.997 2.748.997 3.301 0 1.108-.669 1.964-1.593 2.103v-.538c.606-.135 1.062-.73 1.062-1.565 0-.622-.566-2.13-.959-3.102a.398.398 0 0 0-.738 0c-.393.972-.96 2.48-.96 3.102 0 .836.457 1.43 1.063 1.565v1.357H.531v.531H16.47v-.53h-1.594zm-3.719-3.453l.531-.797.532.797v.797h1.062v-.797l.531-.797.532.797v3.453H13.28V14.61h-1.06v1.594h-1.063V14.61h-1.062v1.594H9.03V12.75l.531-.797.532.797v.797h1.062v-.797zm-2.39-5.313h1.328v.532c0 .44-.357.797-.797.797h-.531V7.437zm.53-1.859c.441 0 .798.357.798.797v.531H8.766V5.578h.53zm-2.39.797c0-.44.357-.797.797-.797h.531v1.328H6.906v-.531zm0 1.063h1.328v1.328h-.53a.797.797 0 0 1-.798-.797v-.532zm.532 3.718v5.047H4.515v-5.047h2.921z" fill="#323232"/><path d="M8.5 1.705l7.139 4.844.596-.88L8.5.42.764 5.67l.596.879L8.5 1.705z" fill="#323232"/></svg>