<svg width="20" height="20" fill="none" xmlns="http://www.w3.org/2000/svg"><path d="M5.931 4.477a.388.388 0 0 0-.386-.386H4a.388.388 0 0 0-.387.386v1.16h2.318v-1.16zm2.704 8.113H.908v3.092h7.727V12.59zM.908 19.16c0 .212.174.386.387.386h6.954a.388.388 0 0 0 .386-.387v-2.704H.908v2.704zM15.977 9.5h-5.409a.388.388 0 0 0-.386.386v2.705a3.086 3.086 0 0 0 2.704 3.052v3.13h-1.159a.388.388 0 0 0-.386.386c0 .213.174.387.386.387h3.091a.388.388 0 0 0 .386-.387.388.388 0 0 0-.386-.386h-1.16v-3.13a3.087 3.087 0 0 0 2.705-3.052V9.886a.388.388 0 0 0-.386-.386zm-9.273-.773a.775.775 0 0 1-.773-.772V6.409H3.613v1.546a.775.775 0 0 1-.773.772c-1.062 0-1.932.87-1.932 1.932v1.16h7.727v-1.16a1.938 1.938 0 0 0-1.931-1.932z" fill="#323232"/></svg>