<svg width="18" height="18" fill="none" xmlns="http://www.w3.org/2000/svg"><path d="M9.598 9.563V7.84H8.402v1.723a.527.527 0 0 1-.527.527H6.152v1.195h1.723c.291 0 .527.236.527.527v1.723h1.196v-1.723c0-.29.236-.527.527-.527h1.723V10.09h-1.723a.527.527 0 0 1-.527-.527zM2.285 4.535h-.703C.71 4.535 0 5.245 0 6.117v9.14c0 .873.71 1.583 1.582 1.583h.703V4.535zm14.133 0h-.703V16.84h.703c.872 0 1.582-.71 1.582-1.582v-9.14c0-.873-.71-1.583-1.582-1.583z" fill="#323232"/><path d="M3.34 16.84h11.32V4.535h-1.758V2.742c0-.872-.71-1.582-1.582-1.582H6.68c-.873 0-1.582.71-1.582 1.582v1.793H3.34V16.84zM6.152 2.742c0-.29.237-.527.528-.527h4.64c.291 0 .528.236.528.527v1.793H6.152V2.742zm-.527 6.293h1.723V7.312c0-.29.236-.527.527-.527h2.25c.291 0 .527.236.527.527v1.723h1.723c.291 0 .527.236.527.527v2.25a.527.527 0 0 1-.527.528h-1.723v1.723a.527.527 0 0 1-.527.527h-2.25a.527.527 0 0 1-.527-.527V12.34H5.625a.527.527 0 0 1-.527-.527v-2.25c0-.292.236-.528.527-.528z" fill="#323232"/></svg>