<svg width="14" height="14" fill="none" xmlns="http://www.w3.org/2000/svg"><path d="M13.535 13.18V6.882h-2.479v6.298h-.82V0H3.764v13.18h-.82V6.882H.464v6.298H0V14h14v-.82h-.465zM2.101 11.024h-.82V9.857h.82v1.167zm3.587-8.663h.902v-.903h.82v.903h.902v.82H7.41v.902h-.82v-.902h-.902v-.82zM5.423 5.25h.82v1.167h-.82V5.25zm0 2.333h.82V8.75h-.82V7.583zm3.154 5.597h-.82v-2.27H6.242v2.27h-.82v-3.09h3.154v3.09zm0-4.43h-.82V7.583h.82V8.75zm0-2.333h-.82V5.25h.82v1.167zm4.142 4.607h-.82V9.857h.82v1.167z" fill="#323232"/></svg>