<svg width="17" height="17" fill="none" xmlns="http://www.w3.org/2000/svg"><path d="M1.172 8.207a.586.586 0 1 0-1.172 0v8.207a.586.586 0 0 0 1.172 0V8.207zM17 10.552a.586.586 0 0 0-1.172 0v5.862a.586.586 0 0 0 1.172 0v-5.862zm-12.458-.88H2.491a.733.733 0 0 0 0 1.466h2.051a.733.733 0 1 0 0-1.466zm4.545-6.448v-.88H7.915v.88a.586.586 0 0 1-.586.586h-.88v1.173h.88c.323 0 .586.262.586.586v.88h1.172v-.88c0-.324.263-.586.586-.586h.88V3.81h-.88a.586.586 0 0 1-.586-.586z" fill="#323232"/><path d="M8.5 0a4.397 4.397 0 1 0 0 8.793A4.397 4.397 0 0 0 8.5 0zm2.638 4.983a.586.586 0 0 1-.586.586h-.88v.88a.586.586 0 0 1-.586.585H7.914a.586.586 0 0 1-.586-.586V5.57h-.88a.586.586 0 0 1-.586-.586V3.81c0-.323.263-.586.586-.586h.88v-.88c0-.323.262-.585.586-.585h1.172c.324 0 .586.262.586.586v.88h.88c.324 0 .586.262.586.585v1.173zm-5.862 9.672h9.672a.293.293 0 0 0 .293-.293v-2.345a.293.293 0 0 0-.293-.293H5.276a.293.293 0 0 0-.294.293v2.345c0 .162.132.293.294.293zm.586-2.052h6.448a.293.293 0 0 1 0 .587H5.862a.293.293 0 0 1 0-.587z" fill="#323232"/><path d="M4.396 14.362v-2.345a.293.293 0 0 0-.293-.293H2.05a.293.293 0 0 0-.293.293v4.104c0 .162.131.293.293.293h12.896a.293.293 0 0 0 .294-.293v-.586a.293.293 0 0 0-.293-.294H5.274a.88.88 0 0 1-.88-.879zm9.087-1.172a.293.293 0 1 0 0-.587.293.293 0 0 0 0 .587z" fill="#323232"/></svg>