<svg width="55" height="55" fill="none" xmlns="http://www.w3.org/2000/svg"><path d="M4.176 16.028h8.497a.806.806 0 1 0 0-1.61H4.176a.806.806 0 1 0 0 1.61zm8.204 3.879H9.025a.806.806 0 1 0 0 1.611h3.357a.806.806 0 1 0 0-1.611zM.806 25.494h8.219a.806.806 0 0 0 0-1.611H.805a.806.806 0 1 0 0 1.611zm12.672 14.283a.806.806 0 0 0-.805-.806H4.176a.806.806 0 0 0 0 1.612h8.497c.445 0 .805-.36.805-.806zm-1.098-6.296H9.025a.806.806 0 1 0 0 1.612h3.357a.806.806 0 1 0 0-1.612zm-2.55-3.17a.806.806 0 0 0-.805-.805H.805a.806.806 0 1 0 0 1.611h8.22c.445 0 .805-.36.805-.806zm24.494-12.497c.445 0 .806-.36.806-.806v-1.23a.806.806 0 1 0-1.611 0v1.23c0 .445.36.806.805.806zm8.858.828a.806.806 0 0 0-1.139 0l-.87.87a.806.806 0 1 0 1.14 1.139l.87-.87a.806.806 0 0 0 0-1.14zm1.634 8.052a.806.806 0 1 0 0 1.612h1.23a.806.806 0 1 0 0-1.612h-1.23zm-2.503 7.656a.806.806 0 0 0-1.14 1.139l.87.87a.806.806 0 1 0 1.14-1.14l-.87-.87zm-8.794 3.642v1.23a.806.806 0 1 0 1.61 0v-1.23a.806.806 0 1 0-1.61 0zm-7.183-3.642l-.87.869a.806.806 0 0 0 1.14 1.14l.87-.87a.806.806 0 1 0-1.14-1.14zm-3.734-7.656a.806.806 0 0 0 0 1.612h1.23a.806.806 0 0 0 0-1.612h-1.23zm4.873-7.183l-.87-.87a.806.806 0 0 0-1.139 1.14l.87.87a.806.806 0 1 0 1.14-1.14zM38.657 27.5a.806.806 0 0 0-.806-.806H35.13v-5.982a.806.806 0 1 0-1.611 0V27.5c0 .445.36.805.805.805h3.527c.445 0 .806-.36.806-.805z" fill="#0D84DA"/><path d="M49.6 27.367a.806.806 0 0 0 .756-.853c-.513-8.454-7.555-15.077-16.032-15.077-8.857 0-16.063 7.206-16.063 16.063s7.206 16.063 16.063 16.063c7.935 0 14.706-5.814 15.884-13.66a.806.806 0 1 0-1.594-.238c-1.058 7.048-7.144 12.287-14.29 12.287-7.969 0-14.452-6.483-14.452-14.452 0-7.968 6.483-14.452 14.452-14.452 7.627 0 13.962 5.958 14.424 13.564.026.444.408.78.852.755z" fill="#0D84DA"/><path d="M34.324 6.824c-2.833 0-5.61.588-8.166 1.688H11.943a.806.806 0 1 0 0 1.611h11.184a20.652 20.652 0 0 0-4.131 3.502.806.806 0 0 0 1.194 1.082 19.105 19.105 0 0 1 14.134-6.271c10.513 0 19.065 8.552 19.065 19.064s-8.552 19.064-19.065 19.064c-10.512 0-19.064-8.552-19.064-19.064 0-3.681 1.052-7.254 3.04-10.332a.806.806 0 1 0-1.352-.875 20.6 20.6 0 0 0-3.3 11.207c0 7.28 3.783 13.692 9.485 17.377h-11.19a.806.806 0 1 0 0 1.611h14.204a20.558 20.558 0 0 0 8.178 1.688C45.724 48.175 55 38.9 55 27.5c0-11.4-9.275-20.676-20.676-20.676z" fill="#0D84DA"/></svg>