<svg width="40" height="40" fill="none" xmlns="http://www.w3.org/2000/svg"><g clip-path="url(#clip0)"><path d="M25.792 35.395v3.938a.667.667 0 0 1-1.333 0v-3.938a5.546 5.546 0 0 0-2.447-4.6.667.667 0 1 1 .747-1.105 6.878 6.878 0 0 1 3.033 5.705zm1.417-19.062v8.417a.667.667 0 0 1-.667.667h-1.417a5.82 5.82 0 0 1-4.488-2.108.667.667 0 0 1 1.026-.852 4.49 4.49 0 0 0 3.462 1.626h.75v-7.75a3.255 3.255 0 0 0-2.583-3.18v2.375a.667.667 0 0 1-1.333 0V9c0-4.227-3.44-7.667-7.667-7.667h-4c-4.227 0-7.667 3.44-7.667 7.667v6.528c0 .54.305 1.01.75 1.25v-3.945a.667.667 0 0 1 1.334 0v4.677c0 4.182 3.402 7.584 7.583 7.584 4.182 0 7.583-3.402 7.583-7.584v-3.99c-1.608-.092-3.003-1.097-3.5-2.963a22.85 22.85 0 0 1-4.522 2.236c-2.25.817-4.476 1.157-4.724 1.157a.667.667 0 0 1-.092-1.327 21.486 21.486 0 0 0 9.453-3.75.667.667 0 0 1 1.052.548c0 .017.006 1.67 1.26 2.424.83.5 1.619.303 1.82.327a.665.665 0 0 1 .564.49c.033.126.023-.168.023 4.9 0 5.797-5.666 10.2-11.431 8.504a4.067 4.067 0 0 1-.854 2.195l3.368 2.567 1.777-1.354a.667.667 0 1 1 .808 1.06c-2.293 1.749-2.185 1.672-2.263 1.716a.664.664 0 0 1-.537.047c-.147-.05.153.16-4.15-3.119a4.076 4.076 0 0 1-1.385.578v3.002a2.504 2.504 0 0 1 1.833 2.409c0 1.378-1.121 2.5-2.5 2.5a2.503 2.503 0 0 1-2.5-2.5c0-1.148.778-2.117 1.834-2.41v-2.889a5.544 5.544 0 0 0-5.084 5.527v3.938a.667.667 0 0 1-1.333 0v-3.938a6.877 6.877 0 0 1 6.88-6.88 2.782 2.782 0 0 0 2.787-2.78v-.175c-2.807-1.342-4.806-4.109-5.056-7.358a2.754 2.754 0 0 1-2.111-2.674V9c0-4.963 4.038-9 9-9h4c4.963 0 9 4.037 9 9v2.799a4.59 4.59 0 0 1 3.917 4.534zM5.875 34a1.168 1.168 0 1 0 1.167 1.167c0-.644-.523-1.167-1.167-1.167zm13.5-1.27c0-3.808.015-3.619-.035-3.768a.666.666 0 0 0-.586-.452c-.987-.07-1.77-.587-2.226-1.333a.667.667 0 1 0-1.138.693 4.12 4.12 0 0 0 2.652 1.884v2.976a3.589 3.589 0 0 0-2.917 3.52v3.083a.667.667 0 0 0 1.334 0V36.25c0-1.24 1.01-2.25 2.25-2.25s2.25 1.01 2.25 2.25v3.083a.667.667 0 0 0 1.333 0V36.25a3.589 3.589 0 0 0-2.917-3.52z" fill="#0D84DA"/></g><defs><clipPath id="clip0"><path fill="#fff" d="M0 0h40v40H0z"/></clipPath></defs></svg>