<svg width="20" height="20" fill="none" xmlns="http://www.w3.org/2000/svg"><path d="M10 0C7.242 0 5 2.242 5 5c0 2.757 2.242 5 5 5 2.757 0 5-2.243 5-5 0-2.758-2.243-5-5-5zm0 7.5A2.502 2.502 0 0 1 7.5 5c0-1.379 1.121-2.5 2.5-2.5s2.5 1.121 2.5 2.5-1.121 2.5-2.5 2.5z" fill="#0D83D9"/><path d="M16.629 9.861a1.249 1.249 0 0 0-1.768 0c-2.68 2.68-7.042 2.68-9.723 0A1.25 1.25 0 1 0 3.37 11.63a9.318 9.318 0 0 0 5.558 2.672l-3.564 3.564a1.249 1.249 0 0 0 0 1.767 1.248 1.248 0 0 0 1.768 0l2.866-2.866 2.866 2.866a1.247 1.247 0 0 0 1.768 0 1.249 1.249 0 0 0 0-1.767l-3.564-3.564a9.318 9.318 0 0 0 5.559-2.672c.488-.489.488-1.28.001-1.769z" fill="#0D83D9"/></svg>