<svg id="SvgjsSvg1001" width="288" height="288" xmlns="http://www.w3.org/2000/svg" version="1.1" xmlns:xlink="http://www.w3.org/1999/xlink" xmlns:svgjs="http://svgjs.com/svgjs"><defs id="SvgjsDefs1002"></defs><g id="SvgjsG1008" transform="matrix(1,0,0,1,0,0)"><svg xmlns="http://www.w3.org/2000/svg" width="288" height="288" fill="none" viewBox="0 0 32 28"><path fill="#0d84da" d="M31.3361 11.8174C31.3357 11.8174 31.3353 11.8174 31.3349 11.8174H0.681647C0.39182 11.8171 0.156557 12.0517 0.15625 12.3416C0.15625 12.3419 0.15625 12.3424 0.15625 12.3428V27.0563C0.155944 27.3462 0.390594 27.5814 0.680421 27.5817C0.680804 27.5817 0.681263 27.5817 0.681647 27.5817H21.5258C21.816 27.5817 22.0512 27.3465 22.0512 27.0563C22.0512 26.7662 21.816 26.5309 21.5258 26.5309H1.20704V12.8682H30.8095V14.182C30.8092 14.4718 31.0438 14.7071 31.3336 14.7074C31.334 14.7074 31.3345 14.7074 31.3349 14.7074C31.6247 14.7077 31.86 14.473 31.8603 14.1832C31.8603 14.1828 31.8603 14.1824 31.8603 14.182V12.3428C31.8606 12.053 31.6259 11.8178 31.3361 11.8174Z" class="colorfff svgShape"></path><path fill="#0d84da" d="M.679522 11.8223C.679905 11.8223.680367 11.8223.68075 11.8223H31.334C31.6238 11.822 31.8591 12.0566 31.8594 12.3464 31.8594 12.3468 31.8594 12.3473 31.8594 12.3477V27.0612C31.8597 27.351 31.625 27.5863 31.3352 27.5866 31.3348 27.5866 31.3344 27.5866 31.334 27.5866H10.4898C10.1997 27.5866 9.96439 27.3513 9.96439 27.0612 9.96439 26.7711 10.1997 26.5358 10.4898 26.5358H30.8086V12.8731H1.20615V14.1869C1.20645 14.4767.971802 14.7119.681976 14.7123.681593 14.7123.681133 14.7123.68075 14.7123.390924 14.7126.155659 14.4779.155352 14.1881.155352 14.1877.155352 14.1872.155352 14.1869V12.3477C.155046 12.0578.389696 11.8226.679522 11.8223zM27.7725 9.37795L3.24997 3.86037C3.11387 3.82995 2.97125 3.85462 2.85331 3.92903 2.73553 4.00406 2.65223 4.12261 2.62158 4.25886L1.39545 9.77644C1.33245 10.0598 1.51116 10.3406 1.79455 10.4036 2.07794 10.4666 2.35872 10.2879 2.42172 10.0045L3.5332 5.00128 27.542 10.403C27.58 10.4118 27.6189 10.4162 27.6579 10.4159 27.948 10.4153 28.1828 10.1797 28.1824 9.88955 28.1819 9.64425 28.0118 9.43198 27.7725 9.37795zM24.7948 6.33637L10.0812.205726C9.82551.0991298 9.53086.208638 9.40687.45647L8.18074 2.90873C8.04226 3.16484 8.13759 3.48478 8.39378 3.62325 8.64989 3.76173 8.96983 3.6664 9.1083 3.41021 9.11375 3.40018 9.11888 3.38991 9.12363 3.37948V3.38071L10.1297 1.36741 24.3889 7.30862C24.6575 7.42065 24.966 7.2939 25.078 7.02538 25.1901 6.75701 25.0633 6.44849 24.7948 6.33637z" class="colorfff svgShape"></path><path fill="#0d84da" d="M25.1647 14.2686H20.2988C20.0087 14.2686 19.7734 14.5038 19.7734 14.794 19.7734 15.0841 20.0087 15.3193 20.2988 15.3193H25.1647C25.4549 15.3193 25.6901 15.0841 25.6901 14.794 25.6901 14.5038 25.4549 14.2686 25.1647 14.2686zM10.4902 24.077H5.85605L3.65883 21.6738V17.6888L6.08534 15.3193H10.4902C10.7803 15.3193 11.0156 15.0841 11.0156 14.794 11.0156 14.5038 10.7803 14.2686 10.4902 14.2686H5.87199C5.73466 14.2682 5.60263 14.3217 5.50415 14.4175L2.76559 17.0887C2.66329 17.2082 2.60719 17.3605 2.60742 17.5178V21.8779C2.60742 22.009 2.65639 22.1354 2.74475 22.2323L5.23563 24.9567C5.33518 25.0657 5.47603 25.1278 5.6237 25.1278H10.4902C10.7803 25.1278 11.0156 24.8925 11.0156 24.6024 11.0156 24.3122 10.7804 24.077 10.4902 24.077z" class="colorfff svgShape"></path><path fill="#0d84da" d="M20.8106 24.0838H25.4447L27.642 21.6806V17.6957L25.2154 15.3262H20.8106C20.5204 15.3262 20.2852 15.0909 20.2852 14.8008 20.2852 14.5107 20.5204 14.2754 20.8106 14.2754H25.4288C25.5661 14.2751 25.6982 14.3286 25.7966 14.4244L28.5352 17.0955C28.6375 17.215 28.6936 17.3673 28.6934 17.5246V21.8847C28.6934 22.0159 28.6444 22.1422 28.556 22.2391L26.0652 24.9636C25.9656 25.0725 25.8248 25.1347 25.6771 25.1346H20.8106C20.5204 25.1346 20.2852 24.8993 20.2852 24.6092 20.2852 24.3191 20.5204 24.0838 20.8106 24.0838zM19.7499 17.7224L20.2849 17.4393C20.1843 17.2492 20.0712 17.0659 19.9464 16.8906L19.4531 17.2422C19.5626 17.3955 19.6618 17.5559 19.7499 17.7224zM19.0966 16.8057L19.5384 16.3918C19.3912 16.2348 19.2339 16.0876 19.0676 15.9512L18.6836 16.4196C18.8295 16.5392 18.9675 16.6681 19.0966 16.8057z" class="colorfff svgShape"></path><path fill="#0d84da" d="M20.5488 18.0287H20.5482L19.9801 18.2374C20.7893 20.4358 19.663 22.874 17.4645 23.6832C15.2661 24.4923 12.8279 23.3661 12.0187 21.1676C11.2096 18.9691 12.3358 16.5309 14.5343 15.7217C15.7556 15.2722 17.1157 15.4083 18.2238 16.0907L18.5421 15.5759C16.2664 14.1764 13.287 14.8867 11.8875 17.1624C10.4879 19.4381 11.1982 22.4175 13.4739 23.817C15.7496 25.2166 18.729 24.5063 20.1286 22.2306C20.9049 20.9683 21.0597 19.4198 20.5488 18.0287Z" class="colorfff svgShape"></path><path fill="#0d84da" d="M17.2098 19.7028C17.8788 19.7028 18.4211 19.1605 18.4211 18.4915C18.4211 17.8226 17.8788 17.2803 17.2098 17.2803H15.0902V19.0971H13.8789V19.7028H15.0902V20.3084H13.8789V20.914H15.0902V22.1252H15.6958V20.914H16.907V20.3084H15.6958V19.7028H17.2098ZM15.6958 17.8859H17.2098C17.5443 17.8859 17.8155 18.157 17.8155 18.4915C17.8155 18.826 17.5443 19.0971 17.2098 19.0971H15.6958V17.8859Z" class="colorfff svgShape"></path></svg></g></svg>