<svg id="SvgjsSvg1016" width="288" height="288" xmlns="http://www.w3.org/2000/svg" version="1.1" xmlns:xlink="http://www.w3.org/1999/xlink" xmlns:svgjs="http://svgjs.com/svgjs"><defs id="SvgjsDefs1017"></defs><g id="SvgjsG1018"><svg xmlns="http://www.w3.org/2000/svg" width="288" height="288" fill="none" viewBox="0 0 29 28"><path fill="#0d84da" d="M2.05838 11.4242L1.38281 8.62365 23.1244 3.37891 23.8 6.17948 2.05838 11.4242zM6.20898 12.6533H28.5746V15.5342H6.20898V12.6533z" class="colorfff svgShape"></path><path fill="#0d84da" d="M3.84729 20.6141C4.07572 21.561 4.85219 22.2511 5.79301 22.3827V24.889C5.79301 26.1795 6.84295 27.2295 8.13346 27.2295H26.6494C27.9402 27.2295 28.9901 26.1795 28.9901 24.889V11.3588C28.9901 10.0683 27.9402 9.01839 26.6494 9.01839H24.9129L23.2253 2.02215C23.0787 1.41435 22.7043 0.900099 22.1708 0.574007C21.6372 0.247916 21.0089 0.148963 20.4011 0.295769L7.01964 3.52334C6.7964 3.57704 6.65912 3.80158 6.71304 4.02482C6.76674 4.24806 6.99149 4.38534 7.21473 4.33164L20.5962 1.10385C20.9881 1.00945 21.3932 1.0731 21.7371 1.28335C22.0811 1.4936 22.3226 1.82532 22.4172 2.21702L22.6231 3.07101L1.68915 8.12023L1.48323 7.26646C1.28792 6.45729 1.78745 5.64055 2.5964 5.44546L5.3199 4.78851C5.54314 4.73481 5.68042 4.51006 5.6265 4.28682C5.5728 4.06379 5.34826 3.9263 5.12502 3.98021L2.40131 4.63716C1.14675 4.93987 0.372227 6.20677 0.674933 7.46134L3.84729 20.6141ZM22.818 3.87931L23.2984 5.8718L10.2526 9.01839H8.13368C7.38774 9.01839 6.67385 9.38194 6.23733 9.98692L2.36472 10.9208L1.88403 8.92853L22.818 3.87931ZM4.65559 20.4192L2.55959 11.7291L5.83047 10.9403C5.80557 11.0767 5.79301 11.2162 5.79301 11.3547C5.79301 11.3562 5.79279 11.3575 5.79279 11.3591V21.5389C5.23978 21.4164 4.7933 20.99 4.65559 20.4192ZM28.1586 24.889C28.1586 25.7212 27.4816 26.398 26.6494 26.398H8.13346C7.30134 26.398 6.62448 25.7212 6.62448 24.889V15.9497H28.1586V24.889ZM28.1586 11.3588V12.2373H23.3275C23.0979 12.2373 22.9117 12.4235 22.9117 12.653C22.9117 12.8828 23.0979 13.0688 23.3275 13.0688H28.1586V15.1182H6.62448C6.62448 14.3671 6.62448 13.6614 6.62448 13.0688H21.6645C21.894 13.0688 22.0803 12.8828 22.0803 12.653C22.0803 12.4235 21.894 12.2373 21.6645 12.2373H6.62448C6.62448 11.6977 6.62448 11.3671 6.62448 11.3588C6.62448 10.5425 7.31867 9.84986 8.13346 9.84986H26.6494C27.4816 9.84986 28.1586 10.5269 28.1586 11.3588ZM13.7987 9.01839L23.4935 6.67989L24.0574 9.01839H13.7987Z" class="colorfff svgShape"></path><path fill="#0d84da" d="M20.336 23.6471C20.8799 23.6471 21.3913 23.5046 21.8352 23.2556C22.2925 23.5122 22.8061 23.6471 23.3364 23.6471C25.0327 23.6471 26.4124 22.2674 26.4124 20.5711C26.4124 18.8751 25.0327 17.4951 23.3364 17.4951C22.8064 17.4951 22.2925 17.63 21.8352 17.8866C21.3913 17.6378 20.8801 17.4951 20.336 17.4951C18.6397 17.4951 17.2598 18.8751 17.2598 20.5711C17.2598 22.2674 18.6397 23.6471 20.336 23.6471ZM23.3364 18.3266C24.5741 18.3266 25.5809 19.3334 25.5809 20.5711C25.5809 21.8088 24.5741 22.8156 23.3364 22.8156C23.0731 22.8156 22.8157 22.7704 22.5727 22.6825C23.1065 22.1169 23.412 21.3489 23.412 20.5711C23.412 19.794 23.1062 19.0251 22.5727 18.46C22.8157 18.3721 23.0731 18.3266 23.3364 18.3266ZM20.336 18.3266C21.5323 18.3266 22.5805 19.377 22.5805 20.5711C22.5805 21.7902 21.5542 22.8156 20.336 22.8156C19.0983 22.8156 18.0912 21.8088 18.0912 20.5711C18.0912 19.3334 19.0983 18.3266 20.336 18.3266Z" class="colorfff svgShape"></path></svg></g></svg>