<svg id="SvgjsSvg1023" width="288" height="288" xmlns="http://www.w3.org/2000/svg" version="1.1" xmlns:xlink="http://www.w3.org/1999/xlink" xmlns:svgjs="http://svgjs.com/svgjs"><defs id="SvgjsDefs1024"></defs><g id="SvgjsG1025"><svg xmlns="http://www.w3.org/2000/svg" width="288" height="288" fill="none" viewBox="0 0 17 29"><path fill="#0d84da" d="M15.4037 0.483398H1.72767C1.33487 0.483851 0.958287 0.64009 0.680536 0.917841C0.402785 1.19559 0.246546 1.57217 0.246094 1.96497V27.4936C0.246546 27.8864 0.402785 28.263 0.680536 28.5407C0.958287 28.8185 1.33487 28.9747 1.72767 28.9752H15.4037C15.7965 28.9747 16.1731 28.8185 16.4509 28.5407C16.7286 28.263 16.8848 27.8864 16.8853 27.4936V1.96497C16.8848 1.57217 16.7286 1.19559 16.4509 0.917841C16.1731 0.64009 15.7965 0.483851 15.4037 0.483398ZM1.38577 1.96497C1.38586 1.87432 1.42191 1.78741 1.48601 1.72331C1.5501 1.65921 1.63702 1.62316 1.72767 1.62307H15.4037C15.4944 1.62316 15.5813 1.65921 15.6454 1.72331C15.7095 1.78741 15.7455 1.87432 15.7456 1.96497V3.67203H1.38577V1.96497ZM15.7456 4.8117V23.2793H1.38577V4.8117H15.7456ZM15.7456 27.4936C15.7455 27.5843 15.7095 27.6712 15.6454 27.7353C15.5813 27.7994 15.4944 27.8354 15.4037 27.8355H1.72767C1.63702 27.8354 1.5501 27.7994 1.48601 27.7353C1.42191 27.6712 1.38586 27.5843 1.38577 27.4936V24.4189H15.7456V27.4936Z" class="colorfff svgShape"></path><path fill="#0d84da" d="M7.67992 11.1076C7.91502 10.8725 8.23388 10.7405 8.56635 10.7405 8.89883 10.7405 9.21769 10.8725 9.45279 11.1076 9.50571 11.1606 9.56854 11.2025 9.63768 11.2312 9.70683 11.2598 9.78094 11.2746 9.85578 11.2746 9.93062 11.2746 10.0047 11.2598 10.0739 11.2312 10.143 11.2025 10.2058 11.1606 10.2588 11.1076 10.3117 11.0547 10.3537 10.9919 10.3823 10.9227 10.4109 10.8536 10.4257 10.7795 10.4257 10.7046 10.4257 10.6298 10.4109 10.5557 10.3823 10.4865 10.3537 10.4174 10.3117 10.3546 10.2588 10.3017 10.0365 10.0794 9.77268 9.90308 9.48229 9.78279 9.1919 9.6625 8.88067 9.60059 8.56635 9.60059 8.25204 9.60059 7.9408 9.6625 7.65042 9.78279 7.36003 9.90308 7.09618 10.0794 6.87394 10.3017 6.76707 10.4085 6.70703 10.5535 6.70703 10.7046 6.70703 10.8558 6.76707 11.0007 6.87394 11.1076 6.98081 11.2144 7.12576 11.2745 7.2769 11.2745 7.42804 11.2745 7.57299 11.2144 7.67986 11.1076L7.67992 11.1076zM4.94031 9.17311C5.04717 9.27998 5.19211 9.34001 5.34324 9.34001 5.49437 9.34001 5.6393 9.27998 5.74617 9.17311 6.11657 8.80267 6.55632 8.50882 7.04029 8.30833 7.52427 8.10785 8.043 8.00466 8.56685 8.00466 9.09071 8.00466 9.60944 8.10785 10.0934 8.30833 10.5774 8.50882 11.0171 8.80267 11.3875 9.17311 11.4952 9.27597 11.6388 9.33261 11.7877 9.3309 11.9366 9.3292 12.0789 9.26929 12.1842 9.164 12.2894 9.0587 12.3493 8.91639 12.351 8.7675 12.3527 8.61862 12.296 8.475 12.1931 8.36737 11.7169 7.89113 11.1515 7.51336 10.5293 7.25563 9.90707 6.99789 9.24018 6.86523 8.56668 6.86523 7.89319 6.86523 7.22629 6.99789 6.60407 7.25563 5.98184 7.51336 5.41648 7.89113 4.94025 8.36737 4.83343 8.47423 4.77343 8.61915 4.77344 8.77025 4.77345 8.92135 4.83347 9.06626 4.94031 9.17311z" class="colorfff svgShape"></path></svg></g></svg>