<svg width="44" height="44" fill="none" xmlns="http://www.w3.org/2000/svg"><g clip-path="url(#clip0)" stroke="#fff" stroke-width=".1"><path d="M37.211 17.49v.037l.035.011c2.192.686 3.861 1.494 4.982 2.4 1.12.905 1.687 1.905 1.688 2.975 0 1.074-.576 2.08-1.71 2.99-1.135.912-2.825 1.725-5.042 2.412-4.06 1.26-9.446 1.954-15.164 1.954s-11.103-.694-15.163-1.954c-2.217-.687-3.907-1.5-5.042-2.412-1.135-.91-1.71-1.916-1.71-2.99 0-1.07.568-2.07 1.688-2.976 1.12-.905 2.79-1.713 4.981-2.399l.035-.01V4.752c0-1.403.619-2.72 1.697-3.617A4.689 4.689 0 0 1 12.353.13h0a.746.746 0 0 1 .048.01h0c.036.01 1.844.46 3.938.908 2.092.447 4.476.894 5.661.894 1.186 0 3.57-.447 5.662-.894C29.756.6 31.563.15 31.6.14h0a4.69 4.69 0 0 1 3.914.995 4.688 4.688 0 0 1 1.697 3.617V17.49zM22.001 1.892c-2.358 0-9.516-1.782-9.588-1.8h19.174c-.072.018-7.229 1.8-9.587 1.8zM8.47 13.084v-.002h-.012 0-.05v1.42l.038.009c3.685.927 8.297 1.434 13.082 1.434 5.25 0 10.199-.597 14.028-1.687l.036-.01V4.752c0-.92-.405-1.785-1.112-2.372a3.074 3.074 0 0 0-2.511-.664h0-.004c-.282.071-2.147.532-4.255.976-2.11.443-4.458.868-5.71.868-1.251 0-3.599-.425-5.71-.868a129.675 129.675 0 0 1-4.255-.975h0-.003a3.074 3.074 0 0 0-2.511.663l.032.038-.032-.038a3.074 3.074 0 0 0-1.113 2.372v6.649l.038.01c3.685.926 8.298 1.434 13.082 1.434 2.8 0 5.518-.17 8.075-.503h0a.809.809 0 1 1 .21 1.605 64.294 64.294 0 0 1-8.285.516c-4.736 0-9.32-.487-13.058-1.38zm0 3.1l-.062-.015v4.313l.038.01c3.685.926 8.297 1.433 13.082 1.433 5.25 0 10.199-.596 14.028-1.686l.036-.01v-1.191l-.062.015c-3.802.95-8.534 1.47-13.426 1.47-2.872 0-5.66-.173-8.284-.516a.81.81 0 0 1 .21-1.605h0c2.556.334 5.272.503 8.074.503 4.945 0 9.708-.542 13.451-1.53l.037-.01v-1.437l-.063.017c-3.898 1.047-8.815 1.619-14.001 1.619-4.736 0-9.321-.488-13.058-1.38zm-1.68 3.114v-.07l-.067.022c-1.554.526-2.806 1.128-3.67 1.752-.86.622-1.35 1.277-1.35 1.911 0 .335.14.677.399 1.016.258.34.637.68 1.122 1.01.97.663 2.37 1.296 4.092 1.83C11.228 27.983 16.443 28.65 22 28.65c5.557 0 10.772-.667 14.684-1.88 1.723-.535 3.123-1.168 4.092-1.83.485-.332.864-.671 1.123-1.01.258-.34.398-.682.398-1.017 0-.634-.489-1.288-1.35-1.91-.864-.625-2.115-1.227-3.67-1.753l-.066-.022v1.604a.81.81 0 0 1-.57.774c-4.054 1.25-9.42 1.938-15.113 1.938a68.372 68.372 0 0 1-4.798-.169 64.708 64.708 0 0 1-.932-.073c-3.086-.267-5.966-.747-8.412-1.415a.809.809 0 0 1-.597-.781v-1.808z" fill="#0D84DA"/><path d="M33.904 12.253l-.046.019c.02.05.036.1.046.152h0a.792.792 0 0 1-.046.467h0a.8.8 0 0 1-.074.14h0a.765.765 0 0 1-.224.224.848.848 0 0 1-.14.074h0a.826.826 0 0 1-.466.046h0a.842.842 0 0 1-.292-.12.825.825 0 0 1-.223-.224h0a.796.796 0 0 1-.075-.14h0a.812.812 0 0 1-.047-.467h0a.836.836 0 0 1 .047-.152l-.046-.02m1.586 0l-.046.02a.818.818 0 0 0-.074-.14h0a.769.769 0 0 0-.223-.223h0a.804.804 0 0 0-.14-.074h0a.754.754 0 0 0-.151-.046h-.001a.816.816 0 0 0-.83.343h0a.818.818 0 0 0-.075.14l-.046-.02m1.586 0a.864.864 0 0 0-.079-.147l-.106 1.084a.818.818 0 0 0 .185-.279.862.862 0 0 0 0-.657zm-1.586 0a.894.894 0 0 0-.05.162l.13-.31a.871.871 0 0 0-.08.149zm.96 1.172a.867.867 0 0 0 .162-.049l-.496.049a.845.845 0 0 0 .335 0zm-23.087 4.424a.848.848 0 0 1 .657 0m-.657 0l1.172.626a.857.857 0 0 1-.236.775l-.035-.036m-.9-1.365a.801.801 0 0 0-.15.079l.15-.08zm.657 0l-.02.046s0 0 0 0m.02-.046a.824.824 0 0 1 .147.079l-.147-.08zm-.02.046a.785.785 0 0 0-.15-.046h-.001 0a.798.798 0 0 0-.316 0h0a.754.754 0 0 0-.152.046h0a.748.748 0 0 0-.14.074h0a.776.776 0 0 0-.123.101l-.035-.035.035.035a.769.769 0 0 0-.1.123h0a.8.8 0 0 0-.074.14h0a.82.82 0 0 0-.063.31.816.816 0 0 0 .36.671h0c.044.03.091.055.14.075h0c.05.02.1.036.151.046h0a.794.794 0 0 0 .316 0h0a.779.779 0 0 0 .292-.12h0a.765.765 0 0 0 .123-.1s0 0 0 0m-.263-1.32c.05.02.096.045.14.074h0a.776.776 0 0 1 .123.1v.001a.81.81 0 0 1 .175.263h0c.02.048.036.1.047.152m-.485-.59l.485.59m-.222.73a.816.816 0 0 0 .222-.73m-.222.73l.222-.73" fill="#0D84DA"/><path d="M21.3 34.325h-.05v3.41a6.221 6.221 0 0 1-6.214 6.215h-5.57a3.865 3.865 0 0 1-3.86-3.86v-3.696a3.692 3.692 0 0 1 3.689-3.688h25.41a3.693 3.693 0 0 1 3.688 3.688v3.696a3.865 3.865 0 0 1-3.86 3.86h-5.57a6.221 6.221 0 0 1-6.214-6.214v-3.411H21.3zm-1.668.05v-.05H9.295c-1.141 0-2.07.928-2.07 2.07v3.695a2.244 2.244 0 0 0 2.242 2.241h5.57a4.6 4.6 0 0 0 4.595-4.595v-.05h0v-3.311zm4.785-.05h-.05v3.41a4.6 4.6 0 0 0 4.595 4.596h5.57a2.244 2.244 0 0 0 2.242-2.241v-.05h0v-3.645c0-1.142-.929-2.07-2.07-2.07H24.417z" fill="#323232"/><path d="M11.34 35.288s0 0 0 0a.81.81 0 0 1 1.144 1.145L9.705 39.21a.807.807 0 0 1-1.144 0 .81.81 0 0 1 0-1.144l2.778-2.779zm17.392 0s0 0 0 0a.81.81 0 0 1 1.144 1.145l-2.778 2.778s0 0 0 0a.807.807 0 0 1-1.145 0 .81.81 0 0 1 0-1.144l2.779-2.779z" fill="#323232"/></g><defs><clipPath id="clip0"><path fill="#fff" d="M0 0h44v44H0z"/></clipPath></defs></svg>