<svg width="20" height="20" fill="none" xmlns="http://www.w3.org/2000/svg"><g clip-path="url(#clip0)"><path d="M19.822 14.473c-.054-.09-.387-.813-1.987-2.298-1.675-1.555-1.45-1.303.568-3.992 1.229-1.637 1.72-2.637 1.566-3.065-.146-.407-1.05-.3-1.05-.3l-3.005.018s-.223-.03-.389.068c-.161.098-.265.323-.265.323s-.476 1.268-1.111 2.345c-1.339 2.274-1.875 2.394-2.094 2.253-.509-.329-.381-1.323-.381-2.028 0-2.204.333-3.123-.652-3.36-.327-.079-.567-.131-1.404-.14-1.072-.011-1.98.004-2.495.255-.342.167-.606.541-.445.562.199.027.65.122.888.447.309.418.297 1.361.297 1.361s.178 2.594-.413 2.917c-.407.22-.963-.23-2.157-2.294C4.682 6.488 4.22 5.319 4.22 5.319s-.088-.217-.247-.333c-.193-.142-.463-.187-.463-.187l-2.857.018s-.43.012-.587.199c-.14.166-.011.508-.011.508s2.238 5.235 4.77 7.874c2.324 2.418 4.962 2.26 4.962 2.26h1.195s.361-.04.545-.24c.17-.182.164-.524.164-.524s-.024-1.604.721-1.84c.734-.233 1.677 1.55 2.675 2.236.755.519 1.33.405 1.33.405l2.67-.037s1.398-.087.736-1.185z" fill="#0D84DA"/></g><defs><clipPath id="clip0"><path fill="#fff" d="M0 0h20v20H0z"/></clipPath></defs></svg>