<svg width="309" height="624" fill="none" xmlns="http://www.w3.org/2000/svg"><g clip-path="url(#clip0)"><path d="M64.682 473.625l-5.398.235c2.758 1.557 5.398-.235 5.398-.235zm-26.9-186.477C-4.107 296.166 1.877 375.628 0 448.803l6.6 27.407 52.683-2.35c-3.725-2.144-7.597-10.487-5.221-37.983 4.077-47.794 2.904-66.888 2.904-66.888l47.755-108.838s-50.982 23.589-66.94 26.997z" fill="#fff"/><path d="M50.337 443.486l5.779-1.38-1.144-74.027-4.635 75.407z" fill="#E6E6E7"/><path d="M74.508 593.098l-.205 30.903h77.91l1.056-33.224-78.76 2.321zm88.03-.001l.968 30.903h77.969l-.176-28.583-78.761-2.32z" fill="#343444"/><path d="M257.754 473.713l-1.877-.118c0 .03 1.056 1.939 1.877.118zm13.435-186.565c-15.957-3.437-66.939-27.026-66.939-27.026l47.784 108.837s1.115 19.095 5.222 66.889c2.317 26.937 1.584 35.486.499 37.836l44.645 2.467 6.6-27.407c-1.877-73.116 4.078-152.578-37.811-161.596z" fill="#F0F1F1"/><path d="M122.351 274.076l-69.726 26.262-.088 252.426 203.634.058.117-252.426-65.824-35.397-68.113 9.077z" fill="#D34A4A"/><path d="M147.43 304.802l-10.677 150.14 19.389 33.988 20.035-32.49-12.936-151.638H147.43z" fill="#3D3D77"/><path d="M155.115 270.492s-15.811.323-19.653 7.432c-8.507 15.687 11.968 29.141 11.968 29.141h15.81s16.955-12.191 12.144-23.971c-3.872-9.547-20.269-12.602-20.269-12.602z" fill="#262260"/><path d="M101.817 264.705l24.465 33.841 29.714-29.317-49.691-32.46-4.488 27.936z" fill="#EA5E5E"/><path d="M154.208 269.229l29.715 29.317 22.235-31.579-2.23-30.14-49.72 32.402z" fill="#EA5E5E"/><path d="M106.304 262.472l-50.512 22.825-9.885 61.072S42.21 520.597 40.979 623.97h116.835l3.315-158.599-54.825-202.899z" fill="#fff"/><path d="M91.314 262.472l-13.17 54.287 21.296 20.915-1.936 16.421L161.099 465.4l-57.611-214.531-12.174 11.603z" fill="#F0F1F1"/><path d="M63.244 549.063l45.262.029v-5.963l-45.262-.029v5.963z" fill="#D0D2D3"/><path d="M253.97 285.356l-50.513-22.855L148.516 465.4l.088 158.6h120.033c-1.203-103.403-4.811-277.543-4.811-277.543l-9.856-61.101z" fill="#F0F1F1"/><path d="M218.447 262.501l-12.144-11.603L148.516 465.4l70.4-111.276-8.653-16.421 21.325-20.915-13.141-54.287z" fill="#fff"/><path d="M161.54 487.08c-2.464 0-4.488 1.998-4.488 4.465 0 2.468 2.024 4.495 4.458 4.495 2.464 0 4.489-1.998 4.489-4.465 0-2.497-1.995-4.495-4.459-4.495zm-.029 47.06c-2.464-.029-4.458 1.998-4.488 4.465a4.492 4.492 0 0 0 4.488 4.495c2.464 0 4.459-1.998 4.489-4.495 0-2.467-2.025-4.465-4.489-4.465zm.293 49.997c-2.464 0-4.488 1.997-4.488 4.465a4.49 4.49 0 0 0 4.488 4.494c2.464 0 4.489-1.997 4.489-4.465-.03-2.497-2.025-4.494-4.489-4.494zm37.927-35.015l45.262.029.029-5.993h-45.291v5.964zm-97.415-80.138l163.271 31.314v-13.924l-160.953-32.46-2.318 15.07zm70.253-47.206l1.35 16.568 81.547 10.604-.381-14.629-82.516-12.543z" fill="#D0D2D3"/><path d="M250.538 442.106l5.808 1.38-4.635-75.407-1.173 74.027z" fill="#D0D2D3"/><path d="M75.475 406.618c-2.112 4.73 5.632 9.665 5.632 9.665s-18.568-5.052-25.256-3.026c-6.688 1.998-10.414 10.311-11.323 16.128-.91 5.845 4.957 16.656 15.136 20.269 10.208 3.642 41.302 8.166 44.264 4.553 2.963-3.613 7.95-32.254 7.95-32.254L87.032 405.15c-.03 0-9.445-3.261-11.557 1.468z" fill="#FFBA7F"/><path d="M265.85 444.455l-155.41-30.786-8.594 49.175s143.676 28.083 177.057 33.577c33.353 5.522 29.099-55.55 29.099-55.55l-42.152 3.584z" fill="#F0F1F1"/><path d="M43.384 486.374v13.924l163.3-31.314-2.317-15.07-160.983 32.46z" fill="#D0D2D3"/><path d="M217.185 414.933c-18.157-1.234-28.747 4.788-28.747 4.788s5.017 28.671 7.95 32.254c2.963 3.614 16.603-11.074 26.811-14.717 10.208-3.642 20.093-2.174 26.371-2.937 5.866-.705-15.753-18.301-32.385-19.388z" fill="#FFBA7F"/><path d="M43.148 439.813L1.025 440.9s-4.282 61.072 29.1 55.55c33.352-5.523 177.027-33.577 177.027-33.577l-8.594-53.816-155.41 30.756z" fill="#fff"/><path d="M78.203 444.603c-5.603.852-12.614.617-15.049-1.645-1.584-1.146-3.373-5.993-4.165-12.632-1.79-13.219-1.203-33.283-1.379-49.087l-4.634.059c.176 15.687-.44 35.78 1.408 49.645 1.026 6.992 2.288 12.456 5.749 15.569 4.987 3.966 12.613 3.437 18.656 2.703 4.899-.676 8.742-1.733 8.8-1.763l-1.232-4.465c.059.03-3.579 1.028-8.154 1.616z" fill="#BBBDBF"/><path d="M83.424 441.254c-3.139.675-5.31 2.908-4.87 4.993.44 2.086 3.345 3.232 6.454 2.586 3.11-.676 5.31-2.909 4.87-4.994-.44-2.086-3.315-3.261-6.454-2.585z" fill="#57585A"/><path d="M124.111 371.75l-4.488 1.176c3.989 15.304 9.797 34.487 11.557 47.735.968 6.61.528 11.721-.704 13.278-1.73 2.82-8.448 4.906-14.08 5.552-4.576.617-8.301.587-8.331.587v4.642c.059 0 4.048 0 8.947-.646 6.014-.911 13.523-2.38 17.307-7.521 2.523-3.907 2.317-9.517 1.467-16.509-1.878-13.865-7.744-33.106-11.675-48.294z" fill="#BBBDBF"/><path d="M110.529 437.611c-3.198.176-5.691 2.056-5.574 4.201.117 2.115 2.816 3.701 6.014 3.525 3.197-.176 5.69-2.056 5.573-4.201-.147-2.115-2.816-3.701-6.013-3.525zM82.661 332.034c-20.71 2.967-33.352 26.527-30.008 51.937l5.984-.793c-1.525-11.545.616-22.444 5.222-30.581 4.634-8.166 11.498-13.483 19.595-14.541 8.066-1.087 16.104 2.233 22.704 8.872 6.57 6.639 11.528 16.568 13.053 28.112l5.984-.793c-3.403-25.41-21.795-44.798-42.534-42.213z" fill="#57585A"/><path d="M88.589 252.925c-5.573 7.285-10.413 16.597-12.29 26.468-.734 3.907-1.028 7.902-1.028 11.809.03 15.657 4.283 45.385 4.342 45.561l5.808-1.703c0-.03-.147-3.29-1.232-8.519-1.085-5.259-3.08-28.054-3.08-35.31 0-3.613.264-7.285.91-10.752 1.613-8.695 6.071-17.331 11.175-24 5.046-6.668 11.03-11.25 14.491-12.014l-1.408-5.611c-5.867 1.557-12.056 6.815-17.688 14.071zm133.027.001c-5.662-7.256-11.822-12.544-17.659-14.101l-1.408 5.64c3.432.764 9.416 5.347 14.461 12.015 5.134 6.639 9.563 15.305 11.176 24 .616 3.408.91 7.843.91 12.661 0 19.447-4.43 45.209-4.43 45.239l5.72.998c0-.088 4.488-25.997 4.518-46.237 0-5.053-.264-9.753-.998-13.748-1.877-9.841-6.688-19.182-12.29-26.467z" fill="#57585A"/><path d="M221.44 336.764c-11.528 0-20.856 9.342-20.856 20.886 0 11.516 9.328 20.886 20.856 20.886 11.499 0 20.856-9.341 20.856-20.886-.029-11.544-9.357-20.886-20.856-20.886z" fill="#929597"/><path d="M221.44 347.604c-5.544 0-10.061 4.494-10.061 10.046s4.517 10.047 10.061 10.047 10.032-4.495 10.032-10.047c0-5.552-4.517-10.046-10.032-10.046z" fill="#D0D2D3"/><path d="M51.508 135.863c-9.973 2.908-7.685 17.919-7.685 23.501 0 5.581 8.33 25.38 13.934 27.525 14.168 5.522 14.197-15.188 14.197-15.188v-24.088c0 .03-10.472-14.629-20.446-11.75zm203.253.265c-9.973-2.909-20.446 11.721-20.446 11.721v24.088s-.029 21.326 14.169 15.216c5.514-2.379 13.962-21.943 13.962-27.525 0-5.611 2.288-20.592-7.685-23.5z" fill="#FFBA7F"/><path d="M178.376 30.346h-49.603c-35.992-.03-65.18 38.07-65.208 85.101l-.03 64.774c-.03 47.03 48.929 79.99 65.15 85.16 17.072 5.435 33.792 4.671 49.603 0 17.043-5.052 65.179-38.1 65.209-85.101l.029-64.774c0-47.03-29.158-85.16-65.15-85.16z" fill="#FFBA7F"/><path d="M63.564 152.284c6.659-5.376 23.29-95.942 24.112-100.73l-28.424 9.077s-1.496 96.323 4.312 91.653zm158.754-95.03s16.838 92.592 22.059 96.999c5.222 4.406 3.931-82.81 3.931-82.81l-25.99-14.19z" fill="#3B2314"/><path d="M113.402 145.969c-5.896 0-10.677 4.788-10.677 10.693 0 5.904 4.781 10.692 10.677 10.692s10.677-4.788 10.677-10.692c0-5.876-4.781-10.664-10.677-10.693zm81.372.029c-5.896 0-10.677 4.788-10.677 10.693 0 5.904 4.781 10.693 10.677 10.693s10.678-4.789 10.678-10.693c-.03-5.875-4.811-10.693-10.678-10.693z" fill="#221F1F"/><path d="M221.878 128.314c-12.438-8.343-36.169-5.435-39.806-5.082-3.168.293-9.651 3.143-9.328 6.315.323 3.173 11.44 5.523 14.608 5.2 12.056-1.204 23.232-2.35 40.246 1.586 3.139.705-3.051-6.257-5.72-8.019zm-94.22-4.582c-3.608-.353-27.368-3.261-39.805 5.052-2.64 1.763-8.83 8.813-5.75 8.02 17.337-4.407 28.19-2.762 40.246-1.557 3.168.323 14.315-1.998 14.638-5.17.322-3.202-6.131-6.022-9.329-6.345z" fill="#3B2314"/><path d="M121.264 213.856c5.192 10.81 12.848 28.406 36.051 28.377 24.317-.03 39.365-37.219 39.365-37.219-30.683 14.57-48.165 16.303-75.416 8.842z" fill="#D15C58"/><path d="M127.365 215.384c1.936 6.374 10.912 9.018 29.011 7.726 23.995-1.734 29.334-7.638 32.296-14.483-19.33 8.901-45.731 10.164-61.307 6.757z" fill="#fff"/><path d="M156.962 231.305s-4.546-3.613-9.914-3.613c-5.368 0-15.459 3.378-15.459 3.378 4.635 6.404 13.141 11.046 25.021 11.075 15.049.088 24.201-12.103 24.201-12.103s-9.387-2.291-15.929-2.35c-4.165-.029-7.92 3.613-7.92 3.613z" fill="#F88976"/><path d="M167.786 191.559c-9.299 7.755-22.47 5.405-26.312 0 0 0 3.872 13.924 13.17 13.513 9.27-.47 22.441-21.268 13.142-13.513z" fill="#F69D5E"/><path d="M178.934 4.67c-41.214-9.517-64.065 6.434-64.065 6.434S108.826 6.257 113.49 0c-11.41 1.557-14.549 13.337-18.186 22.384C83.893 18.742 74.71 23.59 74.71 23.59s9.182 7.109-.704 15.246C46.317 61.718 59.458 88.42 59.458 88.42s10.208 25.41 15.048 20.299c18.187-19.241 32.472-29.405 35.582-43.946 0 0 19.331 25.057 45.349 30.962 21.473 4.847 48.049 9.018 59.284 6.756-9.71-9.723-12.467-28.083-12.467-28.083s30.829 56.578 45.702 14.57c15.81-44.592-39.542-77.464-69.022-84.308z" fill="#3B2314"/><path d="M110.03 180.28c-1.115 0-2.23-.03-3.374-.059-4.634-.206-15.957-1.146-20.885-5.758-7.275-6.815-10.267-29.375-10.384-30.345l2.904-.382c.03.235 2.962 22.502 9.475 28.583 6.394 5.963 31.24 6.492 39.834 2.144 10.443-5.287 10.59-28.053 10.59-28.259h2.933c0 .999-.146 24.793-12.203 30.874-4.018 2.027-11.058 3.202-18.89 3.202z" fill="#221F1F"/><path d="M141.741 149.729c-.382 0-.763-.058-1.144-.205-23.321-9.136-64.798-.823-65.209-.735-1.701.353-3.373-.763-3.725-2.467-.352-1.704.762-3.378 2.464-3.731 1.76-.352 43.707-8.783 68.758 1.028a3.179 3.179 0 0 1 1.789 4.113c-.469 1.234-1.672 1.997-2.933 1.997z" fill="#221F1F"/><path d="M57.962 130.955l-3.229 4.728 22.396 15.339 3.23-4.728-22.397-15.339zm140.422 49.442c-7.862 0-14.902-1.175-18.95-3.202-12.085-6.11-12.232-29.992-12.232-30.991h2.934c0 .235.146 23.06 10.618 28.377 8.624 4.377 33.587 3.848 39.982-2.145 6.541-6.11 9.475-28.465 9.504-28.67l2.904.382c-.117.969-3.109 23.618-10.413 30.433-4.928 4.612-16.31 5.581-20.974 5.757-1.115.03-2.259.059-3.373.059z" fill="#221F1F"/><path d="M166.586 149.729c-1.32 0-2.552-.852-3.021-2.174a3.188 3.188 0 0 1 1.994-4.024c26.87-8.96 67.145-1.322 68.846-.999 1.731.323 2.846 1.997 2.523 3.73-.323 1.734-1.995 2.85-3.725 2.527-.411-.088-40.363-7.638-65.649.793-.293.117-.645.147-.968.147z" fill="#221F1F"/><path d="M250.61 130.961l-22.404 15.329 3.227 4.729 22.404-15.328-3.227-4.73zm-110.013 23.203l-2.406-4.7 2.347-1.204c.323-.176 8.272-4.201 14.139-4.201 7.011 0 12.995 3.437 13.229 3.584l2.288 1.322-2.64 4.582-2.288-1.322c-.058-.029-5.045-2.849-10.589-2.849-3.784 0-9.768 2.614-11.734 3.613l-2.346 1.175z" fill="#221F1F"/></g><defs><clipPath id="clip0"><path fill="#fff" d="M0 0h309v624H0z"/></clipPath></defs></svg>