<svg width="34" height="31" viewBox="0 0 34 31" fill="none" xmlns="http://www.w3.org/2000/svg">
<path d="M17.0002 8.26915C17.5737 8.26915 18.0386 8.73408 18.0386 9.30761V21.0768C18.0386 21.6504 17.5737 22.1153 17.0002 22.1153C16.4266 22.1153 15.9617 21.6504 15.9617 21.0768V9.30761C15.9617 8.73408 16.4266 8.26915 17.0002 8.26915Z" fill="#00BCF2"/>
<path d="M16.9996 23.6153C16.426 23.6153 15.9611 24.0803 15.9611 24.6538C15.9611 25.2273 16.426 25.6923 16.9996 25.6923C17.5731 25.6923 18.038 25.2273 18.038 24.6538C18.038 24.0803 17.5731 23.6153 16.9996 23.6153Z" fill="#00BCF2"/>
<path fill-rule="evenodd" clip-rule="evenodd" d="M21.7966 3.30768C19.6648 -0.384625 14.3355 -0.384624 12.2037 3.30768L1.01199 22.6923C-1.11976 26.3846 1.54493 31 5.80844 31H28.1919C32.4554 31 35.1201 26.3846 32.9883 22.6923L21.7966 3.30768ZM31.1896 23.7308L19.9979 4.34614C18.6656 2.03845 15.3347 2.03845 14.0024 4.34614L2.81066 23.7308C1.47832 26.0384 3.14375 28.9231 5.80844 28.9231H28.1919C30.8566 28.9231 32.522 26.0384 31.1896 23.7308Z" fill="#00BCF2"/>
</svg>
