<svg width="50" height="64" viewBox="0 0 50 64" fill="none" xmlns="http://www.w3.org/2000/svg">
<path d="M16.7995 30.0765C16.5877 29.8646 16.3003 29.7456 16.0008 29.7456C15.7012 29.7456 15.4139 29.8646 15.202 30.0765C14.9902 30.2883 14.8712 30.5756 14.8712 30.8752C14.8712 31.1748 14.9902 31.4621 15.202 31.674C22.627 39.099 22.1095 38.7502 22.7508 38.7502C23.392 38.7502 22.6383 39.324 34.7995 27.174C35.0113 26.9621 35.1304 26.6748 35.1304 26.3752C35.1304 26.0756 35.0113 25.7883 34.7995 25.5765C34.5877 25.3646 34.3003 25.2456 34.0008 25.2456C33.7012 25.2456 33.4139 25.3646 33.202 25.5765L22.7508 36.039L16.7995 30.0765Z" fill="#0D84DA"/>
<path d="M48.9295 7.25007C23.212 -0.0624318 25.147 0.410068 24.697 0.500068L1.07202 7.25007C0.828678 7.31812 0.615333 7.46611 0.466353 7.67019C0.317372 7.87427 0.241433 8.12257 0.250769 8.37507V31.0551C0.263025 38.3809 2.65304 45.5047 7.0615 51.3556C11.47 57.2065 17.6586 61.4682 24.697 63.5001C24.8957 63.5558 25.1059 63.5558 25.3045 63.5001C32.3429 61.4682 38.5316 57.2065 42.94 51.3556C47.3485 45.5047 49.7385 38.3809 49.7508 31.0551V8.37507C49.7601 8.12257 49.6842 7.87427 49.5352 7.67019C49.3862 7.46611 49.1729 7.31812 48.9295 7.25007ZM47.5008 31.0551C47.4881 37.8365 45.2936 44.4338 41.2416 49.8715C37.1896 55.3093 31.4954 59.2987 25.0008 61.2501C18.5135 59.301 12.8246 55.3183 8.77332 49.8896C4.72207 44.4609 2.52306 37.8738 2.50077 31.1001V9.21882L25.0008 2.75007L47.5008 9.17382V31.0551Z" fill="#0D84DA"/>
<path d="M24.6962 5.22471L5.57125 10.6922C5.33913 10.7572 5.13403 10.8951 4.98617 11.0855C4.83832 11.2759 4.75553 11.5087 4.75 11.7497V31.0547C4.75773 37.1676 6.68043 43.1244 10.248 48.0883C13.8155 53.0522 18.8486 56.7736 24.64 58.7297C26.89 59.4835 45.25 50.641 45.25 31.0547V11.7497C45.2593 11.4972 45.1834 11.2489 45.0344 11.0448C44.8854 10.8407 44.6721 10.6928 44.4287 10.6247C23.5263 4.71846 25.135 5.10096 24.6962 5.22471ZM43 12.616V31.0547C43.0012 36.6333 41.27 42.0746 38.0457 46.627C34.8213 51.1794 30.2628 54.6182 25 56.4685C19.7372 54.6182 15.1787 51.1794 11.9543 46.627C8.72998 42.0746 6.99882 36.6333 7 31.0547V12.616L25 7.47471L43 12.616Z" fill="#0D84DA"/>
</svg>
