<svg width="63" height="54" fill="none" xmlns="http://www.w3.org/2000/svg"><g clip-path="url(#clip0)" fill="#0D84DA"><path d="M33.236 50.81H17.61L15.736 54h31.5l-1.846-3.19H33.236zM29.68 8.945V7.773l-15.405 2.509V24.19l6.863-6.791 8.543-8.455z" fill-opacity=".61"/><path d="M14.33 31.118c.413 5.291 3.252 11.51 15.35 18.436V46.31L16.425 33.191l-2.095-2.073z"/><path d="M33.318 46.31v3.244c12.099-6.927 14.937-13.145 15.35-18.436l-6.806 6.737-8.544 8.454z" fill-opacity=".61"/><path d="M33.318 8.945l3.803 3.764 11.603 11.482V10.28L33.318 7.774v1.172zM59.308 27l-.22.382L45.39 50.809 47.237 54l.937-1.582 13.89-23.836.716-1.2L63 27h-3.692z"/><path d="M57.517 23.973L59.307 27h3.694l-.937-1.582-.827-1.445L48.174 1.582 47.237 0l-1.846 3.164 12.126 20.809z" fill-opacity=".61"/><path d="M3.913 27.382L3.693 27H0l.22.382.717 1.2 13.89 23.836.91 1.582 1.873-3.19L3.913 27.381zM29.764 3.164H45.39L47.236 0h-31.5l1.874 3.164h12.154z"/><path d="M5.457 23.973L17.61 3.163 15.736 0l-.91 1.582-13.062 22.39-.827 1.446L0 27h3.693l1.764-3.027z" fill-opacity=".61"/><path d="M41.835 27.627v3.055h-7.248v7.173H31.5v5.181l15.57-15.409h-5.235z"/><path d="M34.587 17.373v7.2h7.248v3.054h5.236L31.5 12.218v5.155h3.087zm-6.173 20.482v-7.173h-7.248v-3.055H15.93l15.57 15.41v-5.182h-3.086z" fill-opacity=".61"/><path d="M21.166 24.573h7.248v-7.2H31.5v-5.155l-15.57 15.41h5.236v-3.055z"/><path d="M33.484 26.973l-1.323-1.31 2.233-2.808L31.5 18.19l-2.894 4.664 2.233 2.809-1.323 1.309-2.839-2.21-4.685 2.864 4.685 2.864 2.839-2.21 1.323 1.31-2.233 2.809 2.894 4.664 2.894-4.664-2.233-2.81 1.323-1.308 2.839 2.209 4.685-2.864-4.713-2.863-2.81 2.209zm-6.89 2.345l-2.81-1.69 2.81-1.692 2.178 1.691-2.177 1.691zm3.197-6.545l1.71-2.782 1.708 2.782-1.709 2.154-1.709-2.154zm3.418 9.709L31.5 35.264l-1.709-2.782 1.71-2.155 1.708 2.155zM31.5 28.936l-1.323-1.309 1.323-1.309 1.323 1.31-1.323 1.308zm7.744-1.309l-2.81 1.691-2.178-1.69 2.177-1.692 2.811 1.691z"/></g><defs><clipPath id="clip0"><path fill="#fff" d="M0 0h63v54H0z"/></clipPath></defs></svg>